<?xml version="1.0" standalone="no"?>
<!DOCTYPE svg PUBLIC "-//W3C//DTD SVG 20010904//EN"
 "http://www.w3.org/TR/2001/REC-SVG-20010904/DTD/svg10.dtd">
<svg version="1.0" xmlns="http://www.w3.org/2000/svg"
 width="900.000000pt" height="900.000000pt" viewBox="0 0 900.000000 900.000000"
 preserveAspectRatio="xMidYMid meet">
<metadata>
Created by potrace 1.10, written by Peter Selinger 2001-2011
</metadata>
<g transform="translate(0.000000,900.000000) scale(0.100000,-0.100000)"
fill="#ffffff" stroke="none">
<path d="M1063 8988 c2 -7 10 -13 17 -13 7 0 15 6 18 13 2 7 -5 12 -18 12 -13
0 -20 -5 -17 -12z"/>
<path d="M3444 8991 c3 -5 -3 -19 -13 -32 -17 -23 -36 -70 -61 -155 -10 -34
-10 -62 1 -140 12 -92 17 -183 21 -406 0 -49 4 -88 8 -88 12 0 19 168 15 365
-3 178 4 283 25 330 13 29 40 114 40 125 0 6 -9 10 -21 10 -11 0 -18 -4 -15
-9z"/>
<path d="M3916 8968 c-7 -35 3 -128 13 -128 18 0 41 63 41 109 0 47 -2 51 -24
51 -18 0 -25 -7 -30 -32z"/>
<path d="M7060 8987 c0 -7 6 -21 13 -31 13 -17 15 -17 51 1 22 10 39 23 40 28
0 6 -23 11 -51 13 -40 2 -53 0 -53 -11z"/>
<path d="M7350 8984 c0 -18 -99 -143 -130 -164 -35 -23 -50 -40 -50 -55 0 -27
-51 -75 -80 -75 -16 0 -35 -6 -42 -13 -23 -22 -85 -57 -102 -57 -18 0 -22 -15
-6 -25 17 -10 11 -22 -12 -29 -19 -5 -20 -8 -8 -15 10 -7 19 -5 31 8 9 10 37
24 63 31 25 7 51 19 57 26 6 8 19 14 28 14 9 0 21 4 27 9 5 5 25 14 44 20 45
14 131 97 123 118 -3 8 -2 18 3 22 5 3 22 26 38 51 16 25 37 57 47 71 10 15
21 39 25 53 6 24 4 26 -25 26 -21 0 -31 -5 -31 -16z"/>
<path d="M7817 8954 c-9 -9 12 -49 34 -62 16 -10 19 -9 19 5 0 36 -13 63 -29
63 -10 0 -20 -3 -24 -6z"/>
<path d="M8293 8931 c-59 -18 -66 -28 -25 -37 15 -4 32 -10 37 -14 8 -5 65 -6
133 -1 6 1 12 10 12 21 0 17 7 20 40 20 40 0 53 13 24 24 -30 11 -169 4 -221
-13z"/>
<path d="M6943 8930 c-17 -4 -46 -19 -63 -34 -17 -14 -40 -26 -51 -26 -11 0
-37 -9 -58 -20 -33 -16 -53 -18 -142 -14 -96 4 -110 2 -193 -27 -49 -17 -105
-41 -125 -53 -20 -13 -45 -26 -57 -30 -26 -8 -104 -85 -104 -103 0 -17 17 -17
23 0 2 6 4 -9 4 -34 1 -39 -4 -51 -39 -90 -48 -53 -88 -128 -88 -166 0 -15 -7
-37 -15 -47 -21 -28 -18 -69 7 -101 31 -39 16 -55 -57 -62 -72 -6 -70 -6 -120
2 -42 7 -60 1 -134 -40 -24 -14 -50 -25 -56 -25 -16 0 -152 -67 -188 -92 -30
-21 -97 -149 -97 -185 0 -11 -7 -26 -15 -33 -8 -7 -15 -22 -15 -34 0 -12 -7
-32 -17 -45 -14 -20 -16 -60 -18 -275 -2 -250 -7 -292 -43 -362 -19 -38 -42
-95 -42 -106 0 -6 -14 -34 -32 -62 -26 -43 -31 -60 -30 -107 l2 -55 -100 -97
c-67 -64 -102 -106 -106 -125 -6 -29 -57 -92 -75 -92 -18 0 -22 32 -10 67 15
40 8 54 -16 30 -12 -12 -16 -32 -15 -79 1 -34 6 -66 12 -72 5 -5 10 -31 10
-56 0 -25 6 -54 14 -65 7 -11 16 -32 20 -48 3 -15 24 -64 46 -109 22 -45 43
-99 47 -120 3 -21 10 -41 14 -44 26 -16 -18 -222 -57 -265 -8 -8 -14 -22 -14
-30 0 -8 -5 -20 -12 -27 -7 -7 -11 -27 -10 -46 1 -19 -2 -37 -8 -41 -5 -3 -10
-24 -10 -47 0 -40 -10 -68 -57 -163 -75 -150 -98 -303 -70 -460 19 -101 35
-139 85 -195 39 -43 54 -79 53 -130 -1 -14 -1 -52 -1 -85 0 -33 -4 -85 -10
-115 -34 -173 -38 -182 -60 -155 -9 11 -8 21 4 46 20 39 20 39 1 39 -24 0 -65
-49 -65 -77 0 -15 14 -38 37 -59 l37 -35 23 28 c38 45 93 132 93 147 0 7 9 25
20 39 11 14 20 30 20 36 0 6 10 30 22 53 19 36 23 57 21 123 -3 90 -20 133
-76 194 -19 21 -56 75 -83 122 l-49 84 0 96 c0 60 5 107 14 125 41 90 59 118
84 139 15 13 27 29 27 35 0 6 9 28 19 48 31 61 38 95 34 160 -4 51 -2 62 11
62 9 0 16 -7 16 -15 0 -8 5 -15 11 -15 7 0 9 17 5 53 -20 177 -19 237 4 237 5
0 13 -12 16 -27 4 -16 10 -32 13 -38 17 -28 34 -144 38 -260 5 -139 -3 -172
-55 -242 -26 -35 -36 -71 -51 -172 -7 -42 -17 -71 -32 -87 -19 -20 -21 -27
-11 -49 7 -15 20 -25 32 -25 16 0 28 -14 46 -55 14 -30 29 -55 34 -55 16 0 24
-72 12 -104 -10 -26 -8 -36 12 -70 13 -23 26 -53 30 -68 7 -31 25 -38 27 -10
7 80 15 99 51 111 l29 10 -24 33 c-14 18 -30 50 -36 70 -7 20 -21 48 -31 61
-40 51 -53 103 -46 185 8 93 23 168 42 204 8 14 14 34 14 45 0 10 9 45 20 77
12 36 20 86 20 128 0 39 4 68 10 68 6 0 10 -4 10 -10 0 -5 8 -10 18 -10 27 0
62 -60 62 -108 0 -22 5 -44 10 -47 6 -3 10 -13 10 -21 0 -8 5 -20 10 -27 6 -7
19 -23 30 -37 l19 -25 0 35 c0 19 -6 44 -14 54 -11 14 -15 46 -15 107 0 64 -5
95 -17 117 -15 26 -15 34 -3 71 10 32 11 47 2 66 -16 34 -15 45 2 45 7 0 21
10 29 23 14 18 18 20 26 7 15 -23 54 16 41 41 -11 20 -4 41 35 104 17 27 24
53 23 80 -1 22 2 48 7 58 5 12 2 24 -8 34 -14 15 -16 14 -22 -13 -4 -16 -10
-38 -13 -49 -3 -11 -5 -24 -3 -29 1 -5 -1 -16 -4 -24 -4 -11 -9 -9 -24 10 -11
13 -19 31 -18 39 3 30 -16 146 -29 178 -8 18 -14 46 -14 61 0 16 -6 41 -14 57
-43 86 -63 143 -65 180 -1 39 2 43 49 73 28 18 55 41 61 51 5 10 20 21 34 25
22 5 23 9 18 57 -3 38 -12 58 -29 74 -20 18 -24 32 -24 77 0 63 13 106 33 106
8 0 26 12 41 26 27 28 34 62 16 80 -22 22 -9 205 17 257 13 26 13 31 -3 48
-24 27 -31 24 -39 -17 -3 -20 -17 -60 -31 -90 -26 -58 -29 -76 -15 -120 24
-75 22 -94 -9 -126 -17 -17 -39 -55 -50 -86 l-20 -56 31 -59 c23 -45 29 -68
27 -105 l-3 -47 -38 0 c-20 0 -37 -3 -37 -7 0 -5 5 -8 11 -8 6 0 8 -9 3 -22
-12 -39 -38 -67 -61 -68 -30 0 -37 31 -23 95 10 46 10 51 -9 64 -27 18 -26 33
4 69 13 16 33 60 43 98 22 77 66 200 81 226 7 11 6 35 -1 72 -15 70 7 173 35
168 11 -2 17 4 17 15 0 10 7 31 15 47 8 15 15 45 15 65 1 20 9 54 20 76 11 22
19 47 20 56 0 9 7 33 16 54 17 43 13 65 -14 65 -34 0 -62 -53 -62 -119 0 -62
-11 -81 -35 -61 -19 16 -20 89 -1 115 8 11 20 40 27 63 23 77 110 129 218 130
119 1 151 20 70 42 -49 14 -46 33 5 37 43 2 79 23 116 64 31 34 75 52 111 44
19 -4 39 1 66 18 50 32 113 97 113 118 0 27 12 29 31 6 l19 -22 -2 35 c-3 32
-5 35 -33 33 -34 -3 -48 13 -34 39 8 15 14 16 30 8 25 -14 42 -4 34 20 -4 12
1 19 13 22 11 3 52 49 93 102 41 53 80 96 87 96 7 0 27 13 45 30 18 16 36 30
41 30 12 0 76 67 76 80 0 5 -8 10 -17 11 -10 0 -2 6 17 13 22 8 34 19 34 30
-1 10 6 16 21 16 12 0 29 7 36 16 15 18 79 14 105 -6 8 -7 36 -13 62 -14 42
-1 47 1 48 21 2 29 19 50 49 57 13 3 37 18 52 32 15 14 49 37 76 50 26 13 47
31 47 39 0 17 -68 19 -127 5z m-499 -224 c-3 -8 -20 -17 -37 -20 -40 -8 -87
-29 -87 -38 0 -12 -60 -40 -73 -34 -7 3 -6 5 3 5 8 1 21 10 28 21 7 11 19 20
26 20 8 0 16 3 18 8 14 33 135 71 122 38z m-1004 -1201 c0 -8 -4 -15 -10 -15
-5 0 -10 7 -10 15 0 8 5 15 10 15 6 0 10 -7 10 -15z m-193 -854 c5 -33 1 -45
-18 -66 -31 -32 -45 -32 -53 2 -8 28 8 77 32 106 20 23 32 10 39 -42z m-54
-140 c9 -16 17 -37 17 -47 0 -16 36 -101 75 -177 8 -16 15 -36 15 -46 0 -9 6
-25 14 -36 27 -40 35 -156 16 -260 -6 -33 -12 -91 -15 -130 -5 -73 -18 -95
-58 -95 -13 0 -18 -6 -15 -22 2 -18 9 -22 27 -20 14 1 32 9 42 18 26 23 31 -5
8 -52 -10 -21 -18 -45 -19 -53 0 -16 -29 -51 -42 -51 -4 0 -8 16 -8 35 0 19
-4 35 -9 35 -21 0 -42 68 -47 152 -3 48 -12 111 -20 140 -9 29 -19 73 -23 98
-11 59 -29 133 -48 192 -10 33 -14 77 -11 140 3 84 6 99 36 151 19 31 37 57
41 57 3 0 14 -13 24 -29z m-183 -237 c14 -35 18 -218 5 -222 -5 -1 -12 8 -13
20 -2 13 -8 28 -12 33 -13 15 -24 138 -16 169 8 33 24 33 36 0z"/>
<path d="M2385 8900 c-18 -19 -18 -20 3 -20 24 0 38 18 25 31 -6 6 -16 2 -28
-11z"/>
<path d="M8515 8882 c-11 -50 4 -61 80 -54 64 5 65 4 65 -20 0 -19 10 -29 44
-46 24 -12 48 -22 53 -22 6 0 16 -7 23 -15 7 -8 21 -15 31 -15 10 0 23 -9 29
-21 7 -12 18 -18 26 -15 8 3 34 -8 58 -24 55 -37 76 -39 76 -5 0 15 -6 25 -14
25 -8 0 -25 15 -37 33 -13 17 -44 53 -71 78 -26 25 -48 53 -48 61 0 46 -91 75
-134 43 -17 -13 -22 -13 -36 0 -13 12 -23 13 -44 5 -39 -15 -67 -12 -81 7 -11
15 -13 13 -20 -15z m263 -67 c16 -35 16 -35 -13 -35 -21 0 -45 11 -84 36 -13
9 17 24 48 24 31 0 40 -5 49 -25z"/>
<path d="M2846 8875 c-9 -13 -16 -27 -16 -30 0 -10 37 -5 55 9 16 12 17 16 6
30 -18 22 -26 20 -45 -9z"/>
<path d="M2109 8845 c-12 -25 -26 -45 -31 -45 -4 0 -8 -5 -8 -11 0 -20 55 -5
58 16 2 11 11 28 19 37 16 17 12 48 -6 48 -5 0 -20 -20 -32 -45z"/>
<path d="M7993 8842 c-13 -2 -23 -8 -23 -13 0 -13 37 -11 45 2 9 14 5 16 -22
11z"/>
<path d="M180 8822 c0 -18 40 -36 53 -23 8 8 5 11 -9 11 -11 0 -25 5 -32 12
-9 9 -12 9 -12 0z"/>
<path d="M3190 8804 c0 -13 -6 -15 -27 -9 -32 8 -33 8 -55 6 -27 -2 -22 -18 7
-25 14 -4 25 -13 25 -22 0 -17 22 -13 72 12 15 8 40 14 55 14 33 0 58 14 50
27 -3 5 -33 10 -66 11 -50 1 -61 -1 -61 -14z"/>
<path d="M3926 8797 c-5 -9 -5 -29 0 -45 7 -25 8 -26 11 -4 3 12 3 32 0 45 -3
19 -4 20 -11 4z"/>
<path d="M137 8783 c-13 -12 -7 -23 13 -23 11 0 20 7 20 15 0 15 -21 21 -33 8z"/>
<path d="M1790 8758 c-36 -11 -90 -27 -120 -35 -60 -17 -155 -59 -173 -78 -7
-6 -40 -28 -73 -48 -50 -30 -72 -37 -112 -37 -28 0 -53 -4 -57 -9 -9 -15 27
-30 59 -24 20 4 27 2 22 -6 -4 -6 -14 -11 -22 -11 -8 0 -14 -4 -14 -9 0 -40
109 -37 136 4 11 17 30 26 77 34 34 6 67 17 72 25 6 8 24 16 39 18 28 3 56 31
44 43 -3 3 -17 0 -32 -6 -19 -9 -30 -9 -37 -2 -22 22 2 36 52 30 39 -5 49 -3
49 8 0 9 10 15 26 15 22 0 25 -2 14 -15 -22 -27 14 -18 40 10 12 13 30 23 39
22 31 -4 211 58 211 73 0 10 -64 20 -125 19 -27 0 -79 -9 -115 -21z"/>
<path d="M2990 8770 c-47 -6 -41 -11 28 -25 25 -5 32 -3 32 9 0 20 -8 23 -60
16z"/>
<path d="M71 8744 c-12 -15 -21 -31 -21 -35 0 -15 20 -10 26 6 4 8 12 15 20
15 8 0 14 9 14 20 0 27 -15 25 -39 -6z"/>
<path d="M2800 8730 c0 -5 9 -10 19 -10 11 0 23 5 26 10 4 6 -5 10 -19 10 -14
0 -26 -4 -26 -10z"/>
<path d="M6673 8721 c-13 -11 -23 -29 -23 -40 0 -26 1 -26 50 -1 40 21 52 40
25 40 -8 0 -15 5 -15 10 0 15 -12 12 -37 -9z"/>
<path d="M2715 8711 c-27 -3 -45 -9 -40 -13 14 -9 95 2 95 13 0 5 -1 8 -2 7
-2 0 -25 -4 -53 -7z"/>
<path d="M4015 8649 c-4 -6 -3 -15 3 -21 6 -6 11 -4 15 6 7 18 -9 31 -18 15z"/>
<path d="M6605 8620 c-3 -5 3 -10 14 -10 11 0 23 5 26 10 3 6 -3 10 -14 10
-11 0 -23 -4 -26 -10z"/>
<path d="M6116 8584 c-4 -10 -1 -14 6 -12 15 5 23 28 10 28 -5 0 -13 -7 -16
-16z"/>
<path d="M6018 8559 c-36 -20 -58 -74 -58 -140 0 -116 24 -150 35 -51 4 31 16
85 27 120 22 70 21 85 -4 71z"/>
<path d="M7043 8543 c-30 -20 -32 -49 -3 -31 11 7 20 18 20 25 0 6 6 14 13 16
6 3 8 6 2 6 -5 0 -20 -7 -32 -16z"/>
<path d="M800 8526 c0 -9 7 -16 16 -16 9 0 14 5 12 12 -6 18 -28 21 -28 4z"/>
<path d="M1082 8531 c-41 -8 -45 -24 -6 -32 40 -9 189 -11 197 -2 10 10 -92
43 -128 42 -16 -1 -45 -4 -63 -8z"/>
<path d="M860 8520 c0 -5 15 -10 33 -10 24 0 28 3 17 10 -20 13 -50 13 -50 0z"/>
<path d="M970 8520 c-12 -8 -9 -10 13 -10 16 0 26 4 22 10 -8 12 -16 12 -35 0z"/>
<path d="M2370 8520 c-8 -4 -27 -13 -42 -18 -20 -8 -25 -16 -21 -31 7 -26 25
-27 48 -1 23 26 31 25 38 -2 l6 -22 26 24 c36 34 33 60 -7 59 -18 0 -40 -4
-48 -9z"/>
<path d="M2637 8515 c-45 -15 -51 -20 -43 -33 7 -12 50 -5 94 14 65 30 23 46
-51 19z"/>
<path d="M420 8484 c-14 -7 -33 -14 -42 -14 -22 0 -33 -19 -19 -33 8 -8 20 -6
46 6 20 9 46 17 59 17 22 0 86 27 86 36 0 10 -108 1 -130 -12z"/>
<path d="M3875 8470 c-10 -17 5 -88 22 -101 28 -24 38 32 18 99 -5 15 -31 16
-40 2z"/>
<path d="M7272 8441 c-72 -44 -122 -88 -122 -108 0 -7 -9 -13 -21 -13 -14 0
-19 -5 -16 -14 3 -7 -10 -44 -29 -82 -19 -38 -34 -75 -34 -83 0 -15 139 124
167 167 12 17 25 22 62 22 25 0 66 9 90 20 24 11 54 20 67 20 30 0 31 16 3 31
-14 7 -24 8 -28 1 -8 -14 -118 -45 -131 -37 -6 4 10 25 37 49 28 26 44 47 39
54 -10 17 -14 16 -84 -27z"/>
<path d="M7573 8465 c-3 -9 -2 -19 1 -23 8 -8 38 10 44 26 6 18 -38 14 -45 -3z"/>
<path d="M4017 8438 c-2 -18 -1 -40 4 -48 5 -10 8 1 9 33 0 55 -6 61 -13 15z"/>
<path d="M6573 8422 c-34 -16 -45 -42 -18 -42 8 0 29 13 47 30 36 32 23 37
-29 12z"/>
<path d="M6973 8416 c-37 -46 -26 -78 11 -37 10 11 16 30 14 43 -3 23 -3 23
-25 -6z"/>
<path d="M212 8415 c-70 -17 -76 -25 -16 -25 61 0 96 9 91 23 -5 16 -17 16
-75 2z"/>
<path d="M7860 8410 c0 -17 36 -30 48 -18 19 19 14 28 -18 28 -16 0 -30 -4
-30 -10z"/>
<path d="M8057 8399 c-22 -25 -14 -39 22 -39 16 0 33 -6 39 -13 7 -8 31 -12
64 -10 29 1 81 2 116 3 34 0 62 4 62 10 0 6 -18 10 -39 10 -22 0 -43 5 -47 11
-3 6 -19 9 -34 5 -24 -4 -27 -2 -23 14 5 18 0 20 -45 20 -28 0 -54 -5 -57 -11
-5 -7 -13 -5 -24 5 -15 14 -19 14 -34 -5z"/>
<path d="M6393 8353 c-55 -53 -84 -106 -67 -122 4 -3 9 -1 11 5 6 17 111 124
121 124 6 0 13 -8 16 -17 11 -28 29 1 21 36 -10 46 -34 39 -102 -26z"/>
<path d="M3007 8363 c-8 -10 -19 -30 -22 -45 -6 -22 -4 -28 9 -28 9 0 18 11
21 28 4 15 10 35 16 45 5 9 5 17 1 17 -5 0 -16 -8 -25 -17z"/>
<path d="M6950 8295 c0 -15 4 -24 10 -20 6 3 10 12 10 20 0 8 -4 17 -10 20 -6
4 -10 -5 -10 -20z"/>
<path d="M7757 8280 c-47 -20 -77 -27 -98 -23 -20 4 -48 -2 -87 -20 -33 -14
-87 -28 -127 -31 -67 -7 -119 -22 -177 -52 -14 -8 -37 -14 -50 -14 -26 0 -68
-25 -68 -41 0 -11 33 -12 44 -1 8 7 15 8 121 15 65 5 110 19 138 45 13 12 22
13 34 6 12 -7 28 -6 57 3 44 16 88 23 161 27 28 1 58 6 67 10 21 10 68 -37 68
-67 0 -18 -2 -19 -17 -5 -29 24 -52 29 -61 12 -6 -11 -31 -17 -83 -20 -40 -3
-78 -9 -84 -14 -5 -4 -46 -10 -90 -13 -84 -6 -115 -13 -115 -28 0 -5 -8 -9
-17 -9 -24 0 -105 -30 -124 -47 -8 -7 -29 -16 -47 -19 -17 -3 -39 -15 -48 -25
-9 -11 -25 -19 -35 -19 -10 0 -21 -4 -24 -10 -3 -5 -17 -10 -31 -10 -22 0 -79
-32 -94 -52 -3 -4 -37 -23 -75 -43 -75 -38 -110 -78 -92 -107 8 -11 2 -28 -21
-67 -18 -28 -32 -58 -32 -66 0 -8 -9 -22 -19 -32 -16 -15 -71 -108 -71 -120 0
-6 44 21 67 41 13 11 26 34 29 53 7 35 49 77 70 69 20 -8 46 29 39 56 -4 16
-1 29 10 38 14 12 14 14 -1 31 -15 17 -15 18 12 24 16 3 44 13 62 22 17 9 35
13 39 10 3 -4 22 2 42 12 20 11 43 22 51 25 8 4 29 15 45 25 39 25 109 61 119
61 4 0 19 9 33 20 14 11 39 20 54 20 29 0 58 12 90 37 8 7 49 16 90 19 41 3
81 8 89 11 8 3 60 11 115 18 106 12 187 5 215 -21 9 -7 29 -12 45 -11 22 1 30
-3 33 -18 4 -21 56 -75 73 -75 5 0 9 -3 9 -8 0 -18 149 -72 198 -72 36 0 44
17 10 22 -15 2 -23 10 -23 23 0 23 -26 31 -54 15 -17 -9 -24 -7 -38 10 -10 11
-25 20 -34 20 -9 0 -22 7 -29 15 -7 8 -19 15 -26 15 -8 0 -14 8 -14 19 0 18
-128 121 -150 121 -5 0 -21 9 -34 21 -31 27 -30 82 3 87 13 2 29 -5 39 -17 15
-19 21 -20 54 -9 46 14 61 3 31 -22 -19 -15 -32 -41 -20 -40 21 1 83 32 85 42
3 14 -61 48 -89 48 -24 0 -92 40 -129 76 -20 19 -38 34 -40 33 -3 0 -36 -14
-73 -29z"/>
<path d="M8906 8274 c-9 -24 -7 -62 4 -69 6 -3 10 -3 11 2 7 52 6 83 0 83 -5
0 -12 -7 -15 -16z"/>
<path d="M2950 8266 c0 -9 7 -16 16 -16 17 0 14 22 -4 28 -7 2 -12 -3 -12 -12z"/>
<path d="M8289 8253 c-7 -18 -6 -28 1 -33 17 -11 140 -11 140 0 0 13 -34 30
-63 30 -14 0 -30 7 -37 15 -18 22 -29 19 -41 -12z"/>
<path d="M3912 8259 c2 -6 8 -10 13 -10 5 0 11 4 13 10 2 6 -4 11 -13 11 -9 0
-15 -5 -13 -11z"/>
<path d="M6824 8217 c-11 -12 -26 -32 -32 -44 -14 -26 -16 -93 -2 -93 8 0 16
23 35 102 4 15 13 29 21 32 14 6 20 26 7 26 -5 0 -17 -10 -29 -23z"/>
<path d="M3902 8183 c3 -79 -15 -229 -30 -255 -15 -26 -15 -29 6 -58 23 -31
24 -49 1 -140 -6 -25 -11 -57 -11 -72 -1 -27 26 -78 40 -78 16 0 37 198 39
365 3 206 -2 251 -27 265 -18 10 -19 7 -18 -27z"/>
<path d="M8137 8203 c-26 -26 19 -45 53 -23 13 9 13 11 0 20 -17 11 -44 13
-53 3z"/>
<path d="M8554 8199 c-13 -5 -7 -8 24 -8 23 -1 42 1 42 3 0 8 -48 12 -66 5z"/>
<path d="M2543 8177 c-24 -11 -38 -40 -28 -57 4 -7 13 -7 26 0 11 6 24 8 30 5
18 -12 40 15 29 35 -13 24 -31 29 -57 17z"/>
<path d="M8700 8170 c0 -6 17 -10 37 -10 43 0 41 5 -4 13 -19 4 -33 2 -33 -3z"/>
<path d="M6562 8154 c-12 -8 -22 -26 -22 -40 0 -20 5 -24 30 -24 20 0 30 5 30
15 0 8 4 15 9 15 15 0 22 33 9 42 -19 11 -31 10 -56 -8z"/>
<path d="M7920 8135 c0 -8 5 -15 10 -15 6 0 10 7 10 15 0 8 -4 15 -10 15 -5 0
-10 -7 -10 -15z"/>
<path d="M8570 8095 c-7 -9 -10 -18 -7 -21 9 -10 71 -20 95 -16 33 5 21 27
-16 28 -17 0 -37 6 -45 12 -11 10 -17 9 -27 -3z"/>
<path d="M3113 8082 c-17 -11 -83 -93 -83 -103 0 -20 38 -7 63 21 16 18 37 30
52 30 26 0 95 37 95 51 0 15 -48 10 -65 -7 -14 -15 -17 -15 -33 -1 -10 9 -22
13 -29 9z"/>
<path d="M6600 8067 c0 -23 28 -77 40 -77 6 0 10 9 10 20 0 11 -4 20 -10 20
-5 0 -16 12 -24 28 -11 20 -15 22 -16 9z"/>
<path d="M7036 8065 c-11 -8 -27 -15 -37 -15 -9 0 -22 -6 -29 -14 -6 -8 -25
-16 -42 -18 -47 -5 -48 -28 -1 -28 53 0 113 18 113 35 0 7 12 23 28 34 24 18
25 20 7 20 -11 0 -29 -6 -39 -14z"/>
<path d="M6473 8053 c-7 -2 -13 -13 -13 -24 0 -32 -30 -69 -56 -69 -20 0 -24
-5 -24 -29 0 -16 -6 -42 -14 -58 -26 -53 -46 -104 -46 -118 0 -8 -4 -15 -8
-15 -5 0 -17 -8 -28 -17 -11 -10 -33 -25 -49 -33 -26 -14 -30 -22 -31 -58 0
-23 1 -42 3 -42 11 0 41 40 33 45 -25 16 16 55 56 55 32 0 36 -63 6 -86 -8 -6
-12 -16 -8 -23 17 -27 136 136 136 185 0 9 7 30 15 47 34 74 53 136 60 190 7
58 3 65 -32 50z"/>
<path d="M4109 8008 c-4 -112 -3 -151 3 -161 9 -14 9 -18 13 106 2 54 -1 97
-6 97 -5 0 -10 -19 -10 -42z"/>
<path d="M8890 8040 c19 -13 30 -13 30 0 0 6 -10 10 -22 10 -19 0 -20 -2 -8
-10z"/>
<path d="M6760 8026 c0 -9 7 -16 16 -16 9 0 14 5 12 12 -6 18 -28 21 -28 4z"/>
<path d="M8700 7995 c49 -26 104 -33 98 -12 -3 6 -18 13 -34 15 -16 2 -33 8
-38 13 -6 5 -24 9 -40 9 -31 -1 -30 -1 14 -25z"/>
<path d="M5903 7968 c3 -12 2 -29 -3 -39 -20 -36 -3 -49 63 -45 34 2 74 4 90
5 35 1 35 19 1 23 -22 2 -35 14 -51 46 0 2 -14 -3 -30 -12 -28 -14 -29 -14
-40 15 -13 34 -38 40 -30 7z"/>
<path d="M2998 7958 c-10 -7 -21 -28 -24 -45 -6 -31 -5 -33 20 -33 31 0 38 13
28 58 -6 29 -9 31 -24 20z"/>
<path d="M3240 7955 c0 -8 5 -15 10 -15 6 0 10 7 10 15 0 8 -4 15 -10 15 -5 0
-10 -7 -10 -15z"/>
<path d="M6632 7888 c-3 -85 -14 -130 -42 -176 -11 -18 -20 -38 -20 -45 0 -18
-41 -59 -82 -81 -20 -11 -42 -33 -50 -52 l-15 -33 28 6 c21 4 30 1 35 -11 3
-9 12 -16 20 -16 16 0 19 26 4 35 -18 11 -10 23 30 44 38 20 42 20 65 5 19
-12 25 -13 25 -3 0 7 12 25 26 40 16 17 24 34 21 43 -9 22 -26 20 -35 -5 l-8
-20 -18 20 c-16 18 -17 21 -4 21 24 0 49 46 47 88 -2 20 3 47 9 59 20 37 15
116 -8 136 -11 9 -22 17 -23 17 -2 0 -4 -33 -5 -72z"/>
<path d="M6745 7931 c-6 -11 9 -23 19 -14 9 9 7 23 -3 23 -6 0 -12 -4 -16 -9z"/>
<path d="M3264 7908 c3 -13 6 -27 6 -31 0 -13 53 -4 57 10 2 6 -10 18 -28 27
-41 21 -42 20 -35 -6z"/>
<path d="M4018 7917 c-11 -26 -10 -155 1 -161 14 -9 17 14 11 99 -3 50 -8 73
-12 62z"/>
<path d="M2822 7853 c-23 -32 -46 -63 -52 -70 -13 -15 -13 -23 0 -23 5 0 22
19 36 43 15 23 40 54 55 68 32 28 36 39 16 39 -8 0 -32 -26 -55 -57z"/>
<path d="M8830 7873 c0 -4 10 -17 22 -30 19 -20 20 -27 10 -44 -11 -17 -9 -23
19 -47 18 -15 38 -31 45 -35 10 -6 14 -35 14 -112 0 -106 12 -139 24 -65 3 23
13 43 21 46 11 5 15 22 15 64 0 52 -2 59 -21 62 -15 2 -27 17 -39 51 -10 27
-16 55 -13 62 3 9 -9 22 -29 35 -32 20 -68 27 -68 13z"/>
<path d="M3116 7852 c-3 -6 -1 -14 5 -17 15 -10 25 3 12 16 -7 7 -13 7 -17 1z"/>
<path d="M3282 7810 c-28 -38 -28 -40 8 -40 24 0 30 4 30 23 0 42 -15 49 -38
17z"/>
<path d="M3190 7786 c0 -10 9 -16 21 -16 24 0 21 23 -4 28 -10 2 -17 -3 -17
-12z"/>
<path d="M1190 7781 c0 -6 4 -11 10 -11 5 0 18 -9 29 -21 10 -11 27 -19 37
-17 15 2 10 9 -21 28 -53 33 -55 33 -55 21z"/>
<path d="M8620 7775 c0 -9 7 -18 15 -21 8 -4 15 -12 15 -20 0 -8 6 -14 13 -14
8 0 32 -12 54 -27 21 -16 48 -33 59 -39 10 -6 23 -24 28 -40 13 -46 34 -79 48
-79 19 0 21 27 8 91 -10 45 -16 57 -38 66 -43 16 -104 47 -147 73 -47 29 -55
30 -55 10z"/>
<path d="M6105 7769 c-4 -5 -18 -14 -32 -20 -35 -13 -19 -28 22 -19 31 7 65
30 65 44 0 11 -49 6 -55 -5z"/>
<path d="M3216 7713 c-16 -16 -4 -33 24 -33 17 0 30 4 30 8 0 12 -46 32 -54
25z"/>
<path d="M4014 7679 c-10 -16 -15 -232 -6 -239 15 -11 29 -68 21 -81 -11 -18
-11 -59 0 -59 12 0 20 55 27 195 6 108 5 124 -13 159 -15 30 -22 36 -29 25z"/>
<path d="M2608 7618 c-16 -5 -28 -16 -28 -24 0 -17 -1 -17 38 -3 17 6 33 17
36 25 6 16 -7 17 -46 2z"/>
<path d="M3311 7611 c-29 -22 -16 -33 28 -25 34 7 38 13 19 32 -16 16 -18 15
-47 -7z"/>
<path d="M5730 7601 c0 -12 5 -21 10 -21 6 0 10 6 10 14 0 8 -4 18 -10 21 -5
3 -10 -3 -10 -14z"/>
<path d="M1575 7600 c-24 -10 -23 -10 38 -13 49 -3 70 6 41 17 -21 8 -55 6
-79 -4z"/>
<path d="M5857 7599 c-11 -6 -30 -9 -43 -6 -26 5 -30 -4 -14 -33 17 -32 90
-36 90 -5 0 20 33 27 64 15 21 -7 34 -6 57 5 16 9 29 19 29 23 0 12 -163 13
-183 1z"/>
<path d="M2071 7559 c-27 -29 -26 -31 6 -46 39 -19 64 -16 70 7 3 11 9 20 14
20 5 0 9 7 9 15 0 8 -8 15 -17 15 -10 0 -28 3 -39 6 -15 4 -28 -2 -43 -17z"/>
<path d="M1708 7538 c-40 -14 -34 -23 15 -24 23 -1 54 -5 70 -9 23 -6 27 -4
27 13 0 32 -54 42 -112 20z"/>
<path d="M5610 7500 c0 -19 3 -21 12 -12 9 9 9 15 0 24 -9 9 -12 7 -12 -12z"/>
<path d="M4137 7471 c-3 -12 -1 -24 4 -27 13 -8 24 25 12 37 -7 7 -12 3 -16
-10z"/>
<path d="M6575 7480 c-4 -6 -2 -17 4 -24 6 -7 8 -16 4 -19 -3 -4 -7 -33 -9
-66 -1 -33 -11 -76 -22 -98 -11 -21 -22 -51 -26 -68 -4 -16 -19 -42 -33 -57
-35 -36 -25 -59 21 -51 31 5 36 3 36 -13 -1 -36 -36 -250 -44 -262 -4 -6 0
-24 8 -39 13 -27 12 -30 -15 -57 -34 -34 -37 -56 -8 -56 14 0 25 11 35 36 12
30 17 34 30 23 15 -13 13 -31 -13 -87 -11 -26 -12 -36 -3 -48 14 -16 12 -20
-67 -101 -29 -29 -61 -53 -72 -53 -19 0 -81 -68 -81 -89 0 -6 -4 -11 -10 -11
-5 0 -9 -17 -9 -37 2 -29 3 -32 6 -12 3 23 61 89 77 89 3 0 26 14 51 32 24 17
48 29 51 25 4 -3 -3 -22 -15 -42 -25 -44 -27 -71 -4 -83 15 -9 15 -16 -5 -99
-25 -100 -26 -113 -12 -113 6 0 10 9 10 19 0 24 45 79 56 69 4 -4 1 -28 -6
-52 -7 -25 -10 -51 -8 -58 3 -7 1 -40 -3 -73 -15 -103 -30 -257 -34 -337 -4
-77 -3 -77 16 -59 16 14 20 33 22 99 1 45 5 82 8 82 11 0 29 -27 23 -33 -4 -4
-8 -55 -10 -114 -7 -193 -13 -235 -40 -260 -44 -40 -26 -69 48 -79 53 -7 66 5
43 40 -15 23 -15 27 1 51 34 52 53 387 25 453 -11 26 -14 89 -15 255 -1 196
-3 226 -20 255 -17 30 -17 35 -2 51 21 24 20 44 -4 66 -21 19 -27 55 -10 55 6
0 10 7 10 15 0 8 5 15 10 15 6 0 10 10 10 21 0 12 16 36 34 54 37 35 37 45 0
45 -25 0 -45 21 -25 28 7 2 28 22 48 43 20 21 45 39 56 39 10 0 30 9 44 20 14
11 39 20 55 20 16 0 45 7 66 16 25 11 83 18 181 21 l143 6 10 29 c11 32 28 37
28 8 0 -11 4 -20 9 -20 5 0 12 -11 15 -24 5 -19 14 -25 55 -30 28 -4 53 -11
56 -16 3 -6 23 -10 43 -10 45 0 122 -34 122 -53 0 -16 -29 -27 -76 -27 -48 0
-57 -40 -10 -40 22 -1 76 -42 76 -58 0 -5 -11 -14 -25 -20 -14 -6 -25 -18 -25
-26 0 -8 -4 -17 -9 -20 -15 -10 -152 42 -197 74 -65 47 -109 61 -187 62 -40 1
-79 4 -88 9 -21 10 -36 -1 -40 -31 -5 -34 -45 -51 -131 -56 -89 -5 -131 -30
-148 -89 -7 -22 -17 -44 -24 -48 -6 -5 0 -5 12 -2 21 6 23 4 17 -14 -6 -21 8
-30 20 -11 8 13 65 13 85 0 9 -5 19 -5 27 1 8 8 19 6 35 -5 43 -30 58 -22 58
33 0 27 6 53 13 59 6 6 39 20 72 32 102 36 97 36 93 9 -2 -16 -11 -25 -25 -27
-28 -4 -31 -32 -4 -32 26 0 44 -26 37 -54 -6 -24 -37 -36 -97 -36 -35 0 -55
30 -39 60 9 16 8 20 -5 20 -13 0 -15 -10 -13 -52 l3 -53 117 -3 c115 -3 116
-2 137 24 27 35 27 60 -1 68 l-23 6 23 18 c29 23 19 32 -35 32 -31 0 -45 5
-50 16 -7 18 15 36 35 29 7 -3 22 0 32 5 20 11 50 -9 50 -33 0 -7 26 -20 57
-31 56 -18 82 -38 83 -63 0 -7 -7 -13 -15 -13 -8 0 -17 -11 -21 -24 -3 -13
-18 -33 -34 -44 -51 -38 -105 -47 -288 -47 -140 0 -174 -3 -182 -15 -13 -21
-3 -30 34 -30 17 0 37 -5 43 -11 15 -15 240 -17 279 -2 16 6 45 14 65 18 21 3
53 17 73 30 20 14 48 25 61 25 22 0 101 59 133 99 21 27 52 102 52 127 0 12 5
46 12 74 10 44 9 55 -5 80 -10 16 -19 52 -20 80 -2 41 1 50 14 50 32 0 28 28
-10 69 -21 23 -45 41 -54 41 -10 0 -17 7 -17 15 0 24 -46 30 -240 30 -182 -1
-202 -3 -375 -45 -27 -7 -63 -18 -78 -26 -16 -8 -33 -14 -38 -14 -6 0 -22 -13
-36 -30 -13 -16 -30 -30 -36 -30 -19 -1 -74 -53 -81 -77 -8 -24 -21 -30 -31
-13 -3 5 3 44 15 86 20 69 23 147 10 239 -4 28 14 185 21 185 4 0 11 17 15 38
4 20 11 45 16 54 5 11 5 25 -1 35 -5 10 -12 26 -15 36 -6 19 -31 23 -41 7z
m867 -548 c9 -9 7 -12 -8 -12 -12 0 -31 -9 -44 -20 -14 -12 -30 -18 -39 -14
-9 4 -26 9 -38 11 -25 6 -30 22 -12 40 15 15 125 11 141 -5z m-650 -387 c-4
-13 -70 -36 -76 -26 -6 10 6 27 24 34 22 9 55 4 52 -8z m344 -72 c-30 -30 -50
-23 -35 11 8 17 17 22 35 18 l24 -4 -24 -25z"/>
<path d="M8900 7421 c0 -10 8 -22 17 -25 12 -5 14 -9 5 -18 -16 -16 -15 -64 3
-116 9 -24 15 -65 14 -90 0 -26 -1 -65 -1 -87 0 -22 0 -55 -1 -73 0 -35 14
-52 46 -52 15 0 17 13 17 140 0 133 -1 140 -20 140 -18 0 -20 7 -20 56 0 31
-6 68 -14 82 -8 15 -17 35 -20 45 -7 23 -26 22 -26 -2z"/>
<path d="M8727 7407 c-11 -29 -9 -43 4 -30 6 6 9 19 7 29 -3 18 -4 18 -11 1z"/>
<path d="M8012 7380 c0 -19 2 -27 5 -17 2 9 2 25 0 35 -3 9 -5 1 -5 -18z"/>
<path d="M4110 7381 c0 -13 26 -32 33 -24 14 13 6 33 -13 33 -11 0 -20 -4 -20
-9z"/>
<path d="M5910 7383 c-14 -3 -29 -9 -34 -14 -6 -5 -29 -9 -52 -9 -29 0 -44 -5
-48 -16 -8 -22 -9 -21 27 -33 28 -10 34 -9 49 9 9 11 27 20 41 20 13 0 31 7
38 16 9 11 23 14 45 11 20 -3 40 0 51 8 16 13 12 14 -37 13 -30 0 -66 -3 -80
-5z"/>
<path d="M3370 7355 c0 -8 9 -15 20 -15 11 0 20 7 20 15 0 8 -9 15 -20 15 -11
0 -20 -7 -20 -15z"/>
<path d="M6316 7345 c-11 -8 -30 -15 -42 -15 -12 0 -32 -9 -45 -21 l-24 -20
45 6 c31 4 54 15 75 35 31 31 25 40 -9 15z"/>
<path d="M6017 7310 c-9 -14 -25 -20 -48 -20 -48 1 -119 -11 -119 -19 0 -4 20
-12 44 -19 39 -10 50 -9 78 6 18 9 35 20 36 25 2 4 12 7 22 7 25 0 33 15 16
29 -11 9 -17 8 -29 -9z"/>
<path d="M8686 7304 c-3 -9 -6 -34 -6 -55 0 -23 -4 -38 -10 -34 -16 10 -41
-41 -51 -107 -10 -56 -8 -68 11 -110 11 -27 23 -48 26 -48 14 0 26 66 30 154
2 55 8 104 14 110 12 12 13 106 1 106 -5 0 -12 -7 -15 -16z"/>
<path d="M6660 7295 c0 -8 5 -15 10 -15 6 0 10 7 10 15 0 8 -4 15 -10 15 -5 0
-10 -7 -10 -15z"/>
<path d="M5730 7270 c0 -5 12 -10 28 -10 21 0 24 2 12 10 -20 13 -40 13 -40 0z"/>
<path d="M6152 7268 c-7 -7 -12 -20 -12 -29 0 -10 -4 -21 -10 -24 -5 -3 -10
-22 -10 -41 0 -19 -7 -51 -15 -71 -17 -40 -20 -103 -5 -103 6 0 10 -33 10 -80
0 -63 -3 -80 -14 -80 -10 0 -16 17 -21 58 -3 31 -10 73 -15 92 -6 19 -11 55
-13 80 -3 45 -3 45 -15 17 -7 -16 -12 -64 -12 -107 0 -69 4 -87 30 -135 17
-30 30 -62 30 -70 0 -22 51 -110 62 -107 5 1 15 -1 22 -7 12 -10 131 -10 141
0 3 4 -11 9 -32 12 -26 4 -41 14 -48 28 -10 23 -18 28 -69 48 -27 11 -28 14
-24 66 3 30 12 63 20 72 9 10 19 33 23 51 6 27 3 38 -15 57 -22 23 -22 24 -5
68 9 25 14 54 10 66 -4 15 1 28 18 45 19 19 21 26 11 30 -8 3 -14 19 -14 35 0
34 -11 46 -28 29z"/>
<path d="M4057 7238 c3 -18 12 -37 20 -41 7 -4 13 -16 13 -27 0 -10 5 -31 11
-47 l11 -28 10 26 c5 15 5 48 1 75 -7 40 -13 50 -31 52 -12 2 -22 8 -22 13 0
5 -4 9 -10 9 -5 0 -7 -14 -3 -32z"/>
<path d="M6635 7239 c-4 -6 -5 -12 -2 -15 7 -7 37 7 37 17 0 13 -27 11 -35 -2z"/>
<path d="M7901 7202 c-13 -25 -14 -32 -2 -32 9 0 23 41 16 48 -2 2 -8 -5 -14
-16z"/>
<path d="M6055 7167 c-8 -31 0 -46 15 -31 7 7 7 19 1 35 l-9 24 -7 -28z"/>
<path d="M1700 7164 c0 -9 7 -14 17 -12 25 5 28 28 4 28 -12 0 -21 -6 -21 -16z"/>
<path d="M1755 7170 c-3 -5 3 -10 15 -10 12 0 18 5 15 10 -3 6 -10 10 -15 10
-5 0 -12 -4 -15 -10z"/>
<path d="M1827 7174 c-11 -11 3 -24 18 -18 8 4 12 10 9 15 -6 11 -18 12 -27 3z"/>
<path d="M8012 7105 l0 -80 9 63 c6 40 6 69 0 80 -8 12 -10 -6 -9 -63z"/>
<path d="M3903 7159 c-35 -13 -30 -54 8 -76 29 -17 31 -21 25 -65 -5 -45 -3
-49 24 -63 35 -18 62 -19 78 -3 18 18 15 25 -34 78 -28 30 -44 55 -41 64 7 16
-13 64 -28 70 -5 2 -20 0 -32 -5z"/>
<path d="M5627 7164 c-14 -14 -7 -35 11 -32 9 2 17 10 17 17 0 16 -18 25 -28
15z"/>
<path d="M5851 7080 c-27 -105 -26 -208 4 -253 16 -26 17 -40 0 -79 -5 -14 -2
-18 14 -18 26 0 27 -24 3 -42 -33 -23 -33 -88 -1 -88 6 0 24 -9 39 -20 31 -22
34 -20 44 26 5 22 2 37 -14 56 -13 17 -20 41 -20 70 0 24 -6 50 -12 57 -10 9
-12 60 -11 197 2 145 0 184 -10 184 -8 0 -22 -35 -36 -90z"/>
<path d="M5760 7091 c0 -10 3 -33 6 -50 6 -29 8 -30 20 -14 7 10 14 33 14 51
0 25 -4 32 -20 32 -13 0 -20 -7 -20 -19z"/>
<path d="M6312 7098 c-7 -7 -25 -13 -40 -13 -24 -2 -27 -6 -30 -39 -2 -21 4
-53 12 -71 10 -20 14 -45 10 -63 -5 -24 -2 -30 15 -35 21 -5 39 23 26 42 -3 5
3 25 14 45 l20 35 -27 -2 c-40 -3 -41 32 -3 71 17 17 31 33 31 36 0 10 -15 7
-28 -6z"/>
<path d="M344 7059 c-3 -5 19 -9 51 -9 32 0 54 4 51 9 -4 5 -26 9 -51 9 -25 0
-47 -4 -51 -9z"/>
<path d="M1960 7060 c-13 -8 -13 -11 1 -25 12 -13 21 -13 47 -4 18 6 31 16 29
23 -5 14 -58 19 -77 6z"/>
<path d="M4117 7031 c-16 -39 -16 -42 6 -75 12 -19 25 -35 28 -36 9 0 -1 133
-11 143 -4 5 -15 -10 -23 -32z"/>
<path d="M2127 7054 c-3 -3 -3 -12 0 -20 6 -16 -15 -18 -37 -5 -23 15 -33 1
-14 -20 9 -10 29 -19 44 -19 15 0 33 -7 40 -15 20 -24 65 -19 79 9 16 29 8 46
-22 46 -12 1 -33 7 -47 15 -28 16 -34 17 -43 9z"/>
<path d="M3585 7030 c-4 -6 12 -10 39 -10 25 0 46 5 46 10 0 6 -18 10 -39 10
-22 0 -43 -4 -46 -10z"/>
<path d="M2900 7021 c0 -5 18 -11 39 -13 31 -3 37 -1 29 9 -12 15 -68 18 -68
4z"/>
<path d="M3095 7017 c-12 -10 -14 -16 -7 -21 13 -8 52 10 52 24 0 14 -23 12
-45 -3z"/>
<path d="M3162 7008 c3 -7 17 -14 32 -16 20 -3 27 0 24 10 -3 7 -17 14 -32 16
-20 3 -27 0 -24 -10z"/>
<path d="M2625 7000 c-11 -17 5 -32 21 -19 7 6 11 15 8 20 -7 12 -21 11 -29
-1z"/>
<path d="M3422 6988 c2 -12 8 -23 14 -25 7 -2 10 6 7 22 -6 30 -26 34 -21 3z"/>
<path d="M2565 6980 c-18 -8 -17 -9 8 -9 16 -1 26 3 22 9 -3 6 -7 10 -8 9 -1
0 -11 -4 -22 -9z"/>
<path d="M2424 6969 c-3 -5 15 -9 40 -9 25 0 46 4 46 9 0 12 -78 12 -86 0z"/>
<path d="M8515 6912 c-16 -2 -35 -8 -40 -12 -6 -5 -31 -12 -55 -16 -25 -4 -52
-12 -60 -19 -17 -13 -129 -45 -160 -45 -11 0 -37 -19 -57 -41 -21 -23 -48 -52
-60 -64 -23 -23 -31 -55 -14 -55 6 0 22 11 37 25 19 18 31 22 38 15 13 -13 63
-13 71 0 8 13 52 13 60 1 3 -6 20 -1 40 10 25 15 43 18 68 14 20 -4 43 -2 54
4 15 9 13 10 -14 11 -24 0 -33 5 -33 16 0 14 9 16 61 11 50 -4 70 -1 116 19
62 28 65 46 7 55 -21 3 -29 7 -16 8 26 1 64 19 74 34 20 31 -23 42 -117 29z
m-333 -164 c-9 -9 -15 -9 -24 0 -9 9 -7 12 12 12 19 0 21 -3 12 -12z"/>
<path d="M3960 6890 c0 -19 3 -21 12 -12 9 9 9 15 0 24 -9 9 -12 7 -12 -12z"/>
<path d="M3457 6853 c-10 -9 -9 -43 1 -43 10 0 42 33 42 43 0 9 -35 9 -43 0z"/>
<path d="M8912 6829 c1 -12 9 -24 16 -27 9 -3 13 3 10 19 -1 12 -9 24 -16 27
-9 3 -13 -3 -10 -19z"/>
<path d="M3940 6819 c0 -17 20 -49 30 -49 6 0 10 14 10 30 0 23 -4 30 -20 30
-11 0 -20 -5 -20 -11z"/>
<path d="M5715 6809 c-5 -13 -1 -27 8 -36 13 -14 16 -13 27 7 6 12 9 28 6 36
-8 21 -34 17 -41 -7z"/>
<path d="M7910 6778 c-16 -33 -20 -62 -20 -139 0 -54 4 -101 10 -104 11 -7 15
9 35 147 8 59 18 114 21 122 4 10 1 16 -10 16 -8 0 -25 -19 -36 -42z"/>
<path d="M5500 6800 c-8 -5 -12 -10 -10 -12 66 -48 80 -62 80 -77 0 -10 7 -24
15 -31 7 -6 17 -33 21 -58 7 -50 37 -102 79 -141 28 -26 47 -21 27 7 -6 9 -22
38 -34 65 -12 26 -24 47 -27 47 -3 0 -7 20 -8 45 -2 65 -20 112 -51 133 -35
24 -73 34 -92 22z"/>
<path d="M1657 6773 c-13 -12 -7 -43 7 -43 8 0 21 -9 28 -19 11 -15 34 -22
108 -30 98 -11 142 -31 110 -51 -21 -14 -54 -12 -147 6 -77 16 -86 16 -126 0
-23 -9 -61 -16 -83 -16 -23 0 -54 -4 -70 -9 -16 -5 -55 -14 -86 -21 -45 -9
-68 -21 -107 -56 -27 -24 -58 -44 -70 -44 -18 0 -20 -4 -15 -27 6 -22 4 -25
-10 -20 -9 4 -16 3 -16 -2 0 -5 -16 -26 -35 -47 -19 -21 -35 -41 -35 -46 0 -4
-13 -29 -29 -56 -16 -27 -32 -64 -36 -83 -4 -19 -11 -38 -15 -44 -4 -5 -11
-29 -15 -52 -4 -24 -11 -45 -16 -49 -5 -3 -9 -21 -9 -39 0 -19 -6 -52 -14 -72
-29 -75 -49 -191 -38 -222 6 -16 6 -34 1 -42 -5 -8 -6 -22 -3 -32 3 -10 1 -24
-6 -31 -6 -8 -10 -18 -9 -22 1 -5 0 -25 -4 -44 -32 -189 -32 -220 2 -183 19
20 36 52 107 197 54 112 96 158 236 263 50 37 96 79 103 93 8 14 39 52 70 85
32 33 78 87 103 120 25 33 49 62 52 65 3 3 33 37 65 75 57 68 96 105 110 105
4 0 26 20 51 45 24 25 46 45 49 45 3 0 19 10 36 22 21 16 42 22 73 20 23 -1
66 7 94 17 67 25 95 18 90 -20 -4 -24 -1 -29 17 -29 12 0 30 -6 41 -14 19 -14
19 -15 0 -29 -18 -13 -18 -14 2 -20 26 -6 42 -44 32 -72 -9 -24 0 -235 9 -235
23 0 42 250 20 258 -5 2 -9 28 -9 58 0 40 4 54 14 54 8 0 18 -4 21 -10 3 -5
22 -10 41 -10 28 0 36 -5 44 -25 6 -16 17 -25 32 -25 13 0 43 -1 68 -3 41 -2
45 0 48 22 5 30 41 62 63 55 9 -2 22 2 29 11 11 13 16 13 42 -3 27 -16 30 -16
59 1 17 9 39 17 49 17 9 0 23 7 31 16 7 9 25 14 44 13 17 -2 42 5 55 14 13 9
37 17 53 17 16 0 36 8 45 19 30 33 74 41 134 24 29 -8 57 -19 63 -24 5 -5 17
-9 26 -9 9 0 22 -6 28 -14 7 -8 27 -17 46 -20 42 -8 64 -40 38 -54 -13 -8 -4
-12 39 -17 34 -4 59 -13 62 -21 3 -8 12 -14 20 -14 7 0 27 -7 42 -15 37 -19
54 -19 54 0 0 8 -7 15 -15 15 -8 0 -15 5 -15 10 0 6 6 10 13 10 16 -1 57 -35
57 -48 0 -6 9 -8 20 -5 11 3 57 -4 102 -15 46 -12 112 -24 148 -27 72 -7 182
-31 208 -45 9 -5 46 -20 81 -34 77 -29 160 -92 182 -138 71 -146 80 -235 42
-416 -8 -40 -13 -76 -9 -79 3 -3 -1 -15 -9 -27 -8 -11 -15 -31 -15 -44 0 -12
-8 -39 -19 -60 -10 -20 -21 -50 -25 -67 -4 -16 -13 -43 -20 -60 -8 -16 -25
-54 -37 -82 -13 -29 -27 -53 -31 -53 -5 0 -8 -6 -8 -14 0 -7 -12 -29 -27 -49
-55 -71 -68 -92 -68 -107 0 -8 -8 -14 -17 -12 -11 2 -18 -8 -23 -35 -3 -21
-15 -45 -26 -53 -28 -22 -37 -111 -15 -145 32 -48 -3 -123 -45 -97 -10 7 -28
12 -39 12 -23 0 -45 36 -41 67 1 14 -8 29 -27 43 -32 24 -50 84 -32 106 7 8 5
15 -5 24 -13 10 -19 10 -35 -5 -13 -12 -27 -15 -49 -10 -30 6 -30 6 -20 -24 6
-17 15 -34 20 -37 5 -3 9 -20 9 -39 0 -19 4 -36 9 -39 4 -3 11 -23 14 -44 10
-58 35 -102 59 -102 12 0 45 -24 77 -57 76 -77 176 -108 213 -65 20 22 21 127
2 210 -8 35 -14 76 -14 91 0 31 24 96 39 105 5 3 19 25 31 47 11 23 40 72 63
108 48 75 49 76 112 225 25 60 59 131 75 157 39 64 61 158 70 303 7 112 1 186
-18 231 -5 11 -17 45 -27 75 -9 30 -30 74 -46 98 -16 24 -29 47 -29 52 0 5
-12 18 -27 30 -20 15 -36 20 -56 16 -22 -5 -40 1 -74 24 -24 17 -51 30 -59 30
-9 0 -34 11 -57 24 -38 22 -102 34 -262 51 -69 8 -222 44 -285 68 -80 31 -221
94 -260 117 -8 5 -22 11 -30 14 -8 4 -31 16 -50 27 -57 35 -142 51 -198 37
-43 -10 -132 -47 -205 -84 -16 -8 -37 -14 -48 -14 -11 0 -32 -6 -47 -14 -15
-7 -54 -16 -87 -19 -61 -6 -76 -12 -172 -58 -29 -14 -56 -22 -59 -17 -12 19
-87 67 -96 62 -5 -3 -32 5 -61 19 -76 35 -116 49 -172 57 -50 7 -97 24 -125
45 -29 22 -151 55 -204 55 -39 0 -55 4 -60 15 -5 15 -37 21 -49 8z m11 -215
c7 -7 12 -23 12 -36 0 -22 3 -24 33 -19 17 4 42 9 55 13 34 10 27 -14 -13 -50
-34 -29 -176 -182 -318 -340 -96 -106 -109 -122 -147 -169 -38 -47 -119 -109
-132 -101 -13 8 -9 46 7 78 8 15 15 40 15 55 -1 25 -1 25 -15 7 -8 -11 -15
-26 -15 -34 0 -7 -7 -20 -15 -28 -8 -9 -15 -24 -15 -35 0 -23 -66 -93 -80 -84
-13 8 -13 82 -1 90 12 7 2 75 -12 93 -8 10 -8 16 0 20 6 4 13 18 17 32 8 29
24 65 55 130 11 25 21 50 21 57 0 6 13 17 29 24 17 8 33 24 36 36 4 17 13 23
33 23 31 0 61 27 80 73 6 15 16 27 20 27 5 0 29 16 53 35 25 20 55 35 71 35
34 0 78 16 101 38 19 17 71 39 98 41 8 0 20 -4 27 -11z"/>
<path d="M1612 6509 c2 -6 8 -10 13 -10 5 0 11 4 13 10 2 6 -4 11 -13 11 -9 0
-15 -5 -13 -11z"/>
<path d="M6917 6763 c-11 -11 14 -33 39 -33 12 0 33 4 47 9 13 5 30 6 37 1 13
-8 50 8 50 22 0 10 -164 11 -173 1z"/>
<path d="M8575 6730 c-3 -5 5 -12 19 -16 28 -7 66 3 66 17 0 12 -77 12 -85 -1z"/>
<path d="M8810 6725 c0 -8 5 -15 10 -15 6 0 10 7 10 15 0 8 -4 15 -10 15 -5 0
-10 -7 -10 -15z"/>
<path d="M8893 6698 c-6 -7 -14 -23 -18 -36 -6 -21 -4 -23 22 -20 24 2 28 8
28 32 0 32 -16 44 -32 24z"/>
<path d="M8765 6671 c-3 -5 0 -13 5 -16 15 -9 60 3 60 15 0 13 -57 13 -65 1z"/>
<path d="M6433 6628 c-7 -17 -6 -32 4 -55 7 -18 15 -33 18 -33 3 0 5 25 5 55
0 58 -10 70 -27 33z"/>
<path d="M8350 6627 c-25 -6 -64 -10 -86 -9 -55 1 -77 -23 -81 -90 -2 -28 -8
-58 -15 -66 -11 -13 -8 -14 22 -7 19 4 44 16 56 26 11 10 29 19 40 19 11 0 31
14 43 31 16 21 26 28 33 21 7 -7 16 -7 29 1 14 8 21 9 30 0 17 -17 -7 -53 -35
-53 -37 0 -52 -25 -33 -54 18 -27 117 -91 117 -76 0 6 7 10 15 10 8 0 15 7 15
15 0 13 -4 14 -21 5 -11 -7 -23 -9 -26 -6 -11 10 -15 103 -6 109 6 4 33 4 61
0 39 -4 51 -10 56 -26 4 -17 7 -18 20 -7 9 7 16 23 16 36 0 12 5 26 11 29 7 5
5 13 -6 25 -18 19 -13 40 8 40 7 0 20 -9 30 -20 9 -11 26 -20 37 -20 12 0 34
-9 49 -21 35 -26 58 -22 85 14 20 28 20 29 3 42 -13 9 -39 12 -82 9 -48 -3
-74 1 -107 16 -34 15 -64 19 -138 19 -52 -1 -115 -6 -140 -12z m182 -22 c0 -5
-5 -11 -11 -13 -6 -2 -11 4 -11 13 0 9 5 15 11 13 6 -2 11 -8 11 -13z m-298
-61 c7 -17 0 -34 -14 -34 -11 0 -21 30 -14 41 8 14 21 11 28 -7z"/>
<path d="M8019 6573 c-18 -37 -23 -67 -23 -129 -1 -70 3 -88 29 -140 16 -32
34 -62 39 -66 20 -14 46 12 46 45 0 28 -4 34 -32 42 -38 12 -48 43 -24 79 9
14 14 43 13 72 -2 42 1 50 21 59 25 11 29 25 7 25 -22 0 -18 17 6 23 32 9 17
32 -24 35 -34 3 -37 1 -58 -45z"/>
<path d="M6270 6589 c-6 -11 -10 -32 -9 -47 2 -15 -1 -34 -6 -42 -25 -39 -44
-84 -39 -91 2 -5 16 -3 29 3 19 8 23 16 19 34 -4 17 0 24 15 29 16 5 19 11 12
22 -4 9 -5 32 0 52 5 20 9 42 9 49 0 19 -18 14 -30 -9z"/>
<path d="M1156 6592 c-44 -10 -127 -87 -189 -177 -24 -34 -54 -45 -133 -47
-55 -1 -64 -4 -64 -20 0 -21 -3 -22 -46 -6 -27 10 -43 8 -91 -7 -32 -11 -65
-25 -74 -32 -8 -7 -27 -13 -41 -13 -14 0 -31 -7 -38 -15 -7 -8 -25 -15 -40
-15 -15 0 -33 -7 -40 -15 -7 -8 -22 -15 -34 -15 -12 0 -31 -7 -42 -15 -10 -8
-34 -15 -52 -15 -51 0 -128 -65 -198 -166 -32 -45 -47 -126 -40 -224 6 -99 7
-114 6 -137 -4 -217 9 -327 49 -404 24 -46 92 -139 102 -139 4 0 16 -21 28
-47 12 -27 25 -55 30 -63 29 -50 41 -135 45 -334 l6 -209 -36 -64 c-28 -52
-34 -70 -28 -99 5 -29 2 -39 -15 -56 -23 -20 -24 -39 -3 -46 7 -2 17 10 23 27
6 16 20 33 31 37 28 9 108 83 108 101 0 7 6 16 14 19 8 3 16 14 19 24 5 18 77
70 97 70 6 0 13 14 17 30 3 17 10 33 14 36 5 3 9 13 9 24 0 22 21 32 79 36
l43 3 -6 -31 c-3 -17 -6 -49 -6 -73 0 -33 -6 -48 -30 -71 -16 -16 -30 -35 -30
-41 0 -7 -7 -13 -15 -13 -8 0 -15 -9 -15 -20 0 -10 -8 -24 -19 -29 -24 -13
-33 -47 -15 -61 17 -15 34 -4 34 22 0 30 32 78 52 78 14 0 18 -8 18 -33 0 -26
-10 -42 -52 -83 -29 -28 -68 -56 -86 -64 -25 -10 -32 -18 -29 -32 4 -13 -13
-41 -56 -91 -34 -40 -64 -74 -68 -77 -3 -3 -14 -20 -23 -38 -9 -18 -28 -38
-42 -44 -21 -10 -23 -16 -18 -44 8 -42 -2 -71 -27 -79 -12 -4 -19 -15 -19 -30
0 -13 -9 -49 -20 -79 -23 -60 -42 -225 -29 -240 5 -6 9 -29 9 -52 0 -53 16
-136 34 -177 59 -137 76 -179 76 -194 0 -9 6 -24 13 -32 8 -9 19 -32 26 -51
13 -37 44 -105 89 -196 15 -31 37 -63 50 -72 13 -8 32 -36 44 -61 11 -25 26
-57 33 -71 7 -14 16 -45 20 -70 4 -25 11 -49 15 -55 5 -5 13 -32 18 -60 6 -27
15 -63 20 -80 6 -16 16 -60 22 -98 7 -37 21 -84 31 -105 14 -26 18 -48 14 -72
-5 -27 -1 -42 14 -62 12 -14 21 -31 21 -36 0 -5 7 -15 15 -22 8 -7 15 -20 15
-30 0 -10 10 -24 23 -33 18 -12 20 -18 10 -28 -16 -16 -17 -50 -2 -83 29 -63
-64 -227 -195 -345 -65 -59 -126 -124 -144 -153 -9 -16 -24 -28 -34 -28 -10 0
-18 -6 -18 -12 0 -16 -63 -78 -79 -78 -6 0 -11 -6 -11 -14 0 -7 -11 -21 -25
-30 -14 -9 -22 -22 -19 -30 5 -14 -31 -56 -48 -56 -5 0 -12 9 -16 21 -8 21 -9
20 -26 -6 -10 -16 -52 -61 -92 -101 l-74 -73 0 -96 c0 -55 4 -94 9 -91 5 4 19
25 30 49 28 58 105 146 240 274 137 129 215 208 256 259 64 79 130 135 150
128 17 -7 21 11 5 21 -16 10 -12 55 6 62 8 3 25 1 37 -5 12 -6 36 -13 52 -15
26 -5 33 -1 50 26 11 18 20 43 21 57 1 14 5 63 9 110 17 190 10 252 -37 332
-16 26 -28 56 -28 68 0 11 -6 31 -14 43 -8 12 -17 47 -21 77 -4 30 -16 73 -27
95 -11 22 -22 69 -25 105 -3 36 -11 75 -19 87 -8 12 -14 30 -14 39 0 9 -6 30
-14 47 -8 18 -24 66 -37 107 -25 86 -38 109 -89 165 -21 22 -44 54 -52 70 -69
138 -108 223 -108 238 0 9 -13 43 -29 75 -60 120 -85 208 -97 343 -6 55 -2 78
21 145 15 43 38 99 53 124 14 25 42 76 62 114 50 98 55 106 97 158 21 26 66
82 99 125 34 43 80 96 103 118 23 21 41 44 41 50 0 5 16 20 35 33 21 13 35 30
35 42 0 24 -25 27 -34 4 -3 -8 -10 -12 -16 -9 -12 8 -13 48 -1 61 4 5 11 24
14 42 8 38 -10 43 -38 12 -19 -21 -45 -27 -45 -11 0 6 5 13 10 16 17 10 39 72
46 128 4 29 11 58 17 65 5 7 11 31 13 54 2 22 10 48 17 57 7 9 22 36 32 61 52
122 58 121 142 -25 6 -11 21 -40 34 -65 12 -25 34 -63 48 -85 27 -42 38 -62
72 -129 12 -22 25 -48 30 -56 4 -8 33 -64 64 -125 31 -60 73 -144 94 -185 37
-72 60 -118 109 -218 12 -26 26 -54 32 -62 5 -8 33 -62 62 -120 29 -58 74
-137 100 -176 53 -78 57 -94 29 -132 -13 -20 -20 -52 -24 -122 -9 -143 -27
-330 -37 -375 -12 -54 -32 -422 -25 -446 6 -19 -11 -82 -28 -106 -6 -9 -15
-10 -27 -3 -23 12 -60 13 -60 1 0 -4 15 -19 32 -32 18 -13 43 -34 56 -47 12
-12 25 -22 26 -22 5 0 16 82 19 140 3 59 9 67 58 75 30 5 38 10 30 18 -23 23
-12 56 22 71 l32 14 -28 11 c-45 18 -61 89 -32 145 9 17 15 55 15 95 0 63 3
70 35 108 19 23 35 46 35 52 0 14 -47 15 -55 1 -37 -60 -28 122 12 245 9 28
17 57 18 65 2 18 21 89 36 142 10 32 8 42 -20 99 -18 35 -44 77 -60 94 -15 16
-59 84 -96 150 -38 66 -84 140 -102 164 -27 36 -33 53 -33 93 0 27 -8 63 -17
81 -11 22 -18 68 -22 147 -5 99 -4 120 12 154 12 25 15 42 9 48 -12 12 -51
-58 -49 -88 2 -15 -3 -18 -23 -16 -14 2 -31 11 -38 20 -17 22 -112 175 -131
211 -8 14 -20 29 -26 33 -7 4 -16 20 -19 35 -4 16 -9 36 -12 45 -5 16 -2 16
38 3 52 -17 176 -45 201 -45 25 0 18 34 -8 38 -11 3 -24 10 -28 18 -4 8 -19
14 -32 14 -28 0 -175 68 -191 88 -5 8 -21 12 -35 10 -21 -3 -26 3 -40 42 -13
38 -20 45 -49 51 -31 7 -54 26 -63 52 -6 20 -36 -2 -51 -38 -8 -19 -25 -39
-38 -44 -13 -5 -33 -19 -44 -32 -32 -36 -105 -175 -115 -219 -13 -58 -50 -90
-104 -90 -35 0 -47 -5 -55 -21 -7 -13 -17 -18 -27 -15 -17 7 -42 -20 -43 -45
0 -15 -30 -49 -43 -49 -4 0 -7 57 -7 126 0 78 -4 134 -12 147 -7 13 -11 56
-10 104 1 45 -3 85 -8 88 -16 10 -12 65 5 65 8 0 15 7 15 15 0 8 -7 15 -15 15
-10 0 -15 10 -15 27 0 41 -30 99 -60 117 -33 19 -84 101 -76 122 5 12 -52 107
-74 124 -3 3 -6 39 -6 80 0 41 -4 112 -8 156 -13 143 35 308 111 374 25 22 42
30 57 26 16 -4 30 3 50 24 15 17 34 30 43 30 8 0 29 11 47 25 33 25 49 25 39
-1 -9 -23 24 -27 46 -5 12 12 32 21 45 21 13 0 29 7 36 14 6 8 33 22 59 31 43
14 50 14 79 -1 19 -9 32 -23 32 -34 0 -30 19 -34 40 -8 17 21 19 21 25 6 10
-26 22 -22 29 8 4 16 2 32 -6 41 -11 14 -10 15 10 9 19 -6 24 -3 33 23 7 20
18 31 30 31 10 0 19 7 19 15 0 10 10 15 29 15 24 0 34 9 67 62 22 34 65 88 97
121 31 32 57 62 57 67 0 13 -12 17 -34 12z m-1084 -814 c-9 -9 -12 -7 -12 12
0 19 3 21 12 12 9 -9 9 -15 0 -24z m723 -4319 c9 -14 4 -18 -33 -25 -38 -8
-45 12 -9 26 30 12 35 12 42 -1z"/>
<path d="M6070 6568 c-12 -13 -31 -33 -42 -45 -18 -18 -22 -35 -22 -95 -1 -59
2 -73 15 -76 11 -2 19 6 23 22 3 14 15 30 26 36 11 6 31 30 45 54 l26 44 -22
41 c-11 23 -23 41 -25 41 -2 0 -13 -10 -24 -22z"/>
<path d="M8847 6509 c-4 -13 -2 -28 3 -33 6 -6 10 -19 10 -29 0 -22 27 -46 52
-47 18 0 54 -63 44 -78 -9 -14 16 -82 31 -82 10 0 13 20 13 80 0 73 -2 80 -20
80 -10 0 -24 9 -30 20 -6 11 -17 20 -25 20 -8 0 -15 6 -15 14 0 10 11 12 45 8
37 -4 45 -2 45 12 0 9 -8 16 -17 16 -9 0 -24 7 -34 16 -10 9 -35 18 -57 21
-35 5 -40 3 -45 -18z"/>
<path d="M5750 6499 c-9 -16 -8 -26 6 -47 10 -15 17 -33 15 -41 -1 -7 17 -34
41 -58 29 -30 42 -51 40 -66 -2 -14 5 -27 20 -36 21 -13 22 -13 9 3 -12 14
-11 20 9 41 28 30 32 31 48 4 10 -16 10 -24 2 -34 -7 -8 -9 -27 -5 -44 6 -27
4 -29 -17 -24 -19 5 -21 3 -10 -8 17 -18 15 -49 -3 -49 -19 0 -35 -31 -35 -70
0 -42 -23 -84 -65 -116 -33 -25 -47 -54 -26 -54 6 0 31 20 58 45 26 25 51 45
55 45 18 0 78 76 74 94 -3 12 2 20 15 23 20 6 26 28 9 38 -16 10 -12 24 16 50
20 19 25 30 20 49 -7 30 -51 76 -71 76 -8 0 -15 4 -15 8 0 5 -16 17 -35 28
-19 10 -35 22 -35 26 0 5 -15 23 -34 41 -18 18 -41 47 -50 65 -19 38 -22 38
-36 11z"/>
<path d="M8754 6488 c-11 -13 -30 -40 -43 -61 -23 -38 -53 -58 -122 -82 -36
-13 -40 -13 -53 7 -13 19 -17 20 -33 7 -10 -8 -22 -19 -28 -26 -5 -6 -19 -13
-29 -15 -11 -1 -21 -8 -23 -14 -6 -17 44 -26 68 -13 12 6 31 8 43 5 37 -10
156 36 156 60 0 7 18 27 39 45 43 34 70 84 54 100 -6 6 -16 1 -29 -13z"/>
<path d="M8660 6492 c0 -14 11 -21 26 -15 21 8 17 23 -6 23 -11 0 -20 -4 -20
-8z"/>
<path d="M3225 6450 c-3 -5 -24 -10 -45 -10 -45 0 -60 -14 -31 -29 28 -16 61
-13 67 4 4 8 12 15 19 15 7 0 18 7 25 15 10 13 9 15 -8 15 -12 0 -24 -4 -27
-10z"/>
<path d="M8737 6321 c-14 -32 -30 -62 -36 -66 -20 -12 -13 -90 9 -110 11 -10
20 -27 20 -37 0 -10 27 -45 60 -76 33 -32 60 -62 60 -66 0 -12 -77 2 -113 20
-25 14 -37 14 -69 4 -24 -7 -61 -9 -95 -4 -36 4 -69 2 -95 -7 -40 -13 -43 -12
-124 31 -46 24 -84 47 -84 52 0 4 -9 8 -21 8 -16 0 -19 -4 -14 -20 9 -27 -15
-26 -39 2 -13 14 -15 23 -8 26 21 7 12 26 -37 80 -72 77 -124 67 -86 -17 16
-37 16 -40 0 -65 -10 -15 -27 -26 -39 -26 -50 0 -66 38 -69 160 -2 50 -7 72
-23 93 -45 57 -72 21 -60 -81 7 -58 18 -81 60 -126 27 -30 43 -93 27 -109 -8
-8 -15 -5 -26 9 -14 19 -14 18 -15 -4 0 -14 -9 -27 -25 -34 -22 -10 -33 -8
-71 10 -24 12 -50 22 -58 22 -7 0 -31 -17 -54 -39 l-40 -39 23 -12 c17 -9 50
-11 121 -5 54 4 343 7 641 7 l543 0 0 89 c0 58 -4 89 -11 89 -6 0 -13 -9 -16
-20 -6 -24 -45 -26 -83 -5 -14 7 -37 11 -52 8 -20 -4 -29 0 -38 16 -16 31 -3
44 36 38 49 -8 44 12 -16 62 -41 35 -50 48 -50 75 0 17 -5 37 -11 43 -8 8 -5
14 11 23 13 7 20 19 18 32 -6 40 -25 29 -51 -31z"/>
<path d="M8201 6352 c-15 -28 -10 -36 31 -55 40 -18 149 -18 156 1 2 7 -7 12
-25 12 -15 1 -39 7 -53 15 -14 8 -36 14 -49 15 -13 0 -29 8 -36 17 -11 15 -13
15 -24 -5z"/>
<path d="M2485 6339 c-10 -15 3 -25 16 -12 7 7 7 13 1 17 -6 3 -14 1 -17 -5z"/>
<path d="M3590 6320 c90 -71 133 -89 213 -90 46 0 48 11 5 26 -88 31 -166 61
-190 74 -10 6 -26 10 -35 10 -15 0 -13 -4 7 -20z"/>
<path d="M7335 6320 c-10 -11 -16 -23 -13 -26 7 -6 38 24 38 37 0 13 -5 11
-25 -11z"/>
<path d="M5567 6313 c-12 -11 -8 -36 8 -53 8 -9 17 -32 19 -51 2 -19 4 -37 5
-41 3 -21 22 -3 32 30 10 35 9 43 -15 80 -26 41 -36 49 -49 35z"/>
<path d="M5482 6274 c4 -21 22 -23 26 -1 2 10 -3 17 -13 17 -10 0 -15 -6 -13
-16z"/>
<path d="M6256 6228 c-33 -39 -43 -60 -51 -110 -3 -21 -10 -38 -15 -38 -16 0
-51 -40 -45 -50 12 -20 38 -9 76 32 22 24 39 47 39 52 0 5 6 17 14 25 16 19
26 79 17 104 -6 16 -10 15 -35 -15z"/>
<path d="M5490 6192 c0 -23 3 -42 8 -42 9 0 8 68 -2 77 -3 3 -6 -12 -6 -35z"/>
<path d="M5682 6145 c-21 -27 -19 -65 4 -65 26 0 47 71 25 85 -5 3 -18 -6 -29
-20z"/>
<path d="M3450 6141 c0 -13 31 -70 41 -76 5 -4 9 -14 9 -24 0 -10 7 -24 15
-31 8 -7 15 -21 15 -31 0 -9 7 -24 15 -32 7 -8 17 -26 21 -41 3 -15 15 -31 25
-37 12 -6 19 -21 19 -40 0 -27 22 -131 50 -239 5 -19 14 -69 20 -109 6 -41 15
-80 20 -87 6 -6 10 -22 9 -35 -1 -49 14 -109 27 -109 10 0 14 -13 14 -44 0
-43 0 -44 25 -33 31 15 46 47 33 72 -11 18 -16 37 -44 150 -8 33 -21 87 -30
120 -24 100 -44 186 -58 262 -8 40 -26 98 -40 129 -14 31 -26 63 -26 70 0 8
-7 14 -16 14 -19 0 -53 39 -54 60 0 25 -47 87 -69 93 -12 3 -21 2 -21 -2z"/>
<path d="M796 6119 c-9 -13 -16 -40 -16 -60 0 -25 -5 -39 -16 -43 -10 -4 -14
-12 -10 -22 4 -9 1 -32 -6 -52 -10 -28 -10 -36 -1 -39 14 -5 8 -78 -7 -98 -10
-13 0 -75 11 -75 12 0 12 -37 0 -42 -13 -5 -20 -109 -7 -105 6 2 15 17 19 33
5 16 15 41 22 55 7 15 11 38 8 52 -3 13 0 28 6 31 18 11 13 26 -8 26 -30 0
-33 15 -10 41 19 22 21 32 15 110 -4 68 -3 88 8 92 16 6 30 97 17 110 -5 5
-15 -1 -25 -14z"/>
<path d="M2540 6126 c-47 -10 -75 -35 -86 -74 -4 -13 -18 -28 -31 -33 -18 -7
-23 -14 -18 -29 4 -11 2 -20 -4 -20 -6 0 -11 7 -11 15 0 21 -19 19 -27 -2 -3
-10 -12 -25 -19 -33 -7 -8 -14 -35 -15 -58 -3 -33 1 -46 14 -53 21 -12 13 -29
-14 -29 -20 0 -26 -15 -9 -25 23 -14 46 7 60 52 32 110 98 192 156 193 16 0
34 4 40 9 14 13 110 41 141 41 15 0 42 7 58 16 18 10 43 14 63 10 27 -4 33 -2
30 12 -3 15 -20 17 -143 17 -77 1 -160 -4 -185 -9z"/>
<path d="M2990 6118 c1 -19 41 -61 71 -75 14 -6 53 -46 85 -89 33 -43 66 -80
74 -82 11 -4 9 2 -5 24 -10 16 -25 41 -32 56 -8 14 -20 29 -28 32 -8 3 -15 14
-15 25 0 42 -22 69 -79 95 -65 30 -71 31 -71 14z"/>
<path d="M6330 6085 c0 -8 -14 -44 -31 -80 -18 -38 -28 -73 -24 -82 3 -10 -2
-32 -12 -50 -15 -28 -16 -38 -6 -64 8 -21 9 -38 3 -50 -7 -12 -6 -27 2 -46 11
-26 12 -24 18 42 3 39 12 80 18 92 7 12 14 41 17 64 3 24 9 48 13 53 18 25 32
86 26 110 -7 28 -24 36 -24 11z"/>
<path d="M5807 6060 c-9 -11 -17 -28 -17 -38 1 -15 2 -14 12 3 6 11 17 24 25
28 14 9 18 27 5 27 -4 0 -15 -9 -25 -20z"/>
<path d="M7620 6065 c-7 -8 -18 -15 -24 -15 -6 0 -31 -16 -56 -36 -24 -19 -57
-38 -73 -41 -16 -3 -31 -12 -34 -19 -4 -10 -38 -13 -154 -12 -83 1 -152 5
-155 10 -3 5 -11 5 -17 -1 -7 -5 -23 -10 -37 -10 -14 -1 -47 -3 -73 -4 -26 -1
-51 -7 -55 -13 -4 -6 -19 -14 -33 -17 -26 -7 -89 -63 -89 -79 0 -16 19 -8 52
22 18 17 39 30 48 30 8 0 24 7 35 16 17 12 54 15 215 13 340 -3 470 0 470 11
0 6 -11 10 -25 10 -16 0 -25 6 -25 15 0 8 5 15 10 15 6 0 16 12 22 28 7 15 23
38 35 51 13 13 23 28 23 32 0 15 -47 10 -60 -6z"/>
<path d="M1655 6040 c-3 -5 3 -10 14 -10 12 0 21 5 21 10 0 6 -6 10 -14 10 -8
0 -18 -4 -21 -10z"/>
<path d="M1585 6009 c-4 -5 -19 -15 -33 -21 -15 -6 -22 -12 -15 -15 15 -5 93
27 93 39 0 12 -38 10 -45 -3z"/>
<path d="M5726 5966 c-9 -14 -13 -31 -10 -39 3 -8 -2 -20 -11 -27 -8 -7 -15
-21 -15 -31 0 -10 -9 -23 -20 -29 -27 -14 -15 -33 17 -27 16 3 27 -1 30 -11
12 -29 43 69 36 116 -3 27 -1 42 6 42 6 0 11 7 11 15 0 23 -26 18 -44 -9z"/>
<path d="M6140 5956 c0 -19 -10 -51 -22 -72 -19 -32 -20 -40 -9 -71 7 -19 11
-60 9 -91 -2 -46 0 -57 12 -57 12 0 15 15 16 70 0 88 24 150 54 140 11 -4 20
-2 20 4 0 6 -4 11 -10 11 -5 0 -10 6 -10 14 0 7 -7 19 -15 26 -8 7 -15 23 -15
36 0 15 -6 24 -15 24 -10 0 -15 -10 -15 -34z"/>
<path d="M1973 5953 c-4 -10 -22 -32 -40 -49 -27 -26 -44 -32 -95 -38 -35 -3
-64 -11 -66 -16 -2 -6 -9 -10 -17 -10 -7 0 -18 -7 -25 -15 -11 -14 -15 -14
-32 2 -18 16 -19 16 -25 -5 -3 -12 -9 -22 -14 -22 -5 0 -9 -5 -9 -11 0 -6 7
-9 15 -5 21 8 19 -14 -2 -30 -17 -12 -17 -13 0 -20 10 -3 28 -2 40 4 12 6 39
13 59 17 24 4 39 12 43 25 8 27 43 35 64 16 25 -23 62 -20 68 4 6 24 21 26 30
4 8 -22 -15 -140 -37 -184 -10 -19 -21 -53 -25 -75 -4 -22 -11 -45 -15 -50 -5
-6 -10 -37 -12 -70 -6 -74 -60 -195 -124 -273 -43 -53 -54 -85 -33 -97 6 -4
-9 -28 -38 -59 -26 -29 -62 -68 -79 -87 -17 -19 -59 -50 -93 -69 -38 -22 -59
-40 -56 -48 3 -8 5 -30 5 -49 0 -33 2 -35 25 -29 18 5 25 2 25 -7 0 -15 -44
-67 -57 -67 -4 0 -16 -12 -26 -26 -15 -20 -16 -28 -7 -39 19 -23 26 -19 46 30
10 25 21 45 25 45 5 0 25 16 46 35 37 33 37 35 18 49 -18 13 -18 15 -3 21 9 4
21 4 25 2 14 -9 28 4 73 73 24 36 62 84 85 106 57 56 125 163 125 195 0 15 6
32 14 38 8 7 16 45 20 104 4 50 8 103 10 117 2 14 4 37 5 51 0 14 13 39 28 55
14 15 30 42 34 59 4 16 12 45 18 63 25 74 29 92 21 97 -12 8 -6 103 8 138 15
35 15 72 2 98 -13 24 -38 25 -47 2z"/>
<path d="M6005 5945 c-3 -8 -7 -22 -10 -30 -2 -8 -14 -15 -25 -15 -12 0 -39
-14 -61 -32 -33 -26 -39 -37 -37 -62 2 -22 9 -32 26 -36 23 -5 23 -5 -7 -28
-37 -27 -39 -42 -7 -73 22 -21 23 -24 8 -36 -11 -8 -13 -15 -7 -20 11 -9 42
-54 62 -91 11 -20 10 -28 -2 -45 -13 -18 -12 -22 3 -33 23 -18 37 -17 56 2 20
20 21 58 1 74 -8 7 -21 25 -29 42 -13 25 -13 30 0 35 23 8 16 21 -12 25 -41 5
-53 32 -27 60 24 25 26 74 3 88 -16 10 -6 40 14 40 8 0 18 -9 21 -20 3 -11 15
-20 25 -20 18 0 19 6 13 65 -4 49 -2 70 10 88 15 24 13 37 -5 37 -5 0 -11 -7
-13 -15z"/>
<path d="M2843 5886 c-4 -7 -31 -19 -58 -25 -42 -10 -56 -9 -79 3 -29 15 -46
13 -81 -11 -11 -7 -32 -13 -48 -13 -16 0 -43 -11 -62 -26 l-33 -25 3 -162 c5
-209 12 -264 33 -276 13 -8 18 -30 23 -108 5 -85 9 -105 32 -138 15 -22 27
-43 27 -48 0 -15 40 -96 50 -102 5 -3 10 -15 10 -25 0 -19 37 -100 50 -110 10
-7 35 -67 53 -125 28 -88 57 -169 71 -195 7 -14 24 -54 36 -90 12 -36 40 -103
62 -149 30 -63 38 -92 34 -115 -4 -22 0 -38 13 -53 25 -30 31 -29 31 6 0 17
-6 31 -15 35 -12 4 -14 14 -10 40 7 34 -17 139 -36 162 -5 6 -10 34 -12 62 -2
28 -9 57 -15 65 -7 8 -9 22 -6 31 5 12 0 19 -13 22 -14 4 -26 23 -38 62 -9 31
-23 70 -31 85 -8 16 -11 33 -8 38 3 6 1 15 -4 22 -5 7 -12 26 -15 42 -4 17 -4
24 -1 18 3 -7 12 -13 19 -13 8 0 15 -9 17 -20 4 -27 24 -22 21 5 -4 52 -22
109 -37 117 -9 5 -16 15 -16 23 0 8 -16 31 -35 51 -19 19 -35 40 -35 44 0 5
-8 13 -17 19 -10 5 -15 12 -11 16 3 4 -14 46 -38 93 -24 48 -44 92 -44 97 0 6
-7 23 -15 39 -29 56 22 57 58 2 20 -31 117 -96 143 -96 20 0 64 -40 64 -58 0
-15 -23 -21 -43 -10 -24 12 -34 3 -18 -16 17 -20 99 -16 131 7 13 9 38 17 55
17 43 0 98 57 99 103 1 34 1 34 -33 25 -23 -7 -42 -6 -63 3 -30 12 -39 8 -51
-25 -2 -5 -31 -9 -65 -9 -69 0 -106 20 -194 105 -59 57 -63 95 -13 111 17 6
41 18 54 28 14 12 40 19 65 19 23 0 47 5 53 11 6 6 29 12 52 14 22 1 48 8 56
15 8 7 23 9 37 4 13 -4 38 -6 56 -5 38 2 99 -39 113 -78 9 -23 11 -23 26 -8
13 13 15 20 5 29 -7 7 -12 19 -12 28 0 21 -36 55 -75 71 -89 36 -267 44 -324
16 -19 -9 -39 -17 -45 -17 -6 0 -18 -5 -26 -10 -13 -9 -13 -11 0 -20 8 -5 29
-10 45 -11 20 -1 12 -4 -23 -10 -29 -5 -63 -14 -75 -21 -12 -7 -43 -12 -69
-13 l-48 0 0 37 c0 20 5 49 10 64 7 19 7 37 0 60 -18 52 -5 72 63 103 64 29
116 43 177 46 85 6 189 18 200 25 18 11 -5 56 -39 76 -17 10 -31 22 -31 26 0
14 -79 9 -87 -6z m62 -366 c-46 -12 -117 -12 -110 0 3 6 36 9 73 9 52 -1 60
-3 37 -9z"/>
<path d="M5606 5782 c-3 -6 -1 -14 5 -17 15 -10 25 3 12 16 -7 7 -13 7 -17 1z"/>
<path d="M5540 5755 c-10 -12 -10 -15 4 -15 9 0 16 7 16 15 0 8 -2 15 -4 15
-2 0 -9 -7 -16 -15z"/>
<path d="M5634 5715 c-3 -19 -10 -35 -15 -35 -4 0 -13 -8 -18 -18 -11 -20 -4
-62 10 -62 18 0 59 80 59 115 0 47 -27 48 -36 0z"/>
<path d="M5726 5686 c-4 -16 -16 -47 -26 -69 -17 -34 -17 -41 -5 -54 13 -13
16 -11 25 13 6 15 18 33 27 39 14 11 14 16 1 56 l-15 44 -7 -29z"/>
<path d="M7775 5699 c-16 -5 -35 -7 -42 -5 -24 9 -461 -24 -523 -39 -36 -9
-95 -20 -131 -24 -38 -5 -84 -18 -110 -32 l-44 -24 -1 -90 c-1 -50 -9 -146
-17 -215 -9 -69 -16 -206 -17 -304 0 -98 -5 -222 -10 -275 -5 -53 -10 -346
-11 -651 -1 -305 -2 -584 -3 -620 -1 -52 2 -65 14 -65 10 0 14 8 12 25 -1 15
4 30 15 38 16 12 16 14 0 41 -20 33 -22 64 -6 92 8 16 7 25 -5 38 -15 16 -15
19 -1 31 13 11 18 10 29 -6 19 -26 27 -15 28 40 0 35 -4 51 -18 61 -18 14 -18
16 -1 26 16 9 16 12 2 32 -17 24 -20 68 -6 83 15 16 20 221 6 241 -9 12 -10
23 -4 35 9 17 11 102 6 311 -1 60 0 110 3 112 3 2 4 25 2 52 -4 49 -5 85 -4
138 1 17 1 44 1 60 0 189 5 312 13 322 6 8 5 19 -2 33 -8 14 -8 31 0 58 5 20
10 52 10 69 0 18 5 53 12 78 10 39 10 49 -5 73 -11 20 -13 32 -6 39 7 7 7 17
-3 32 -11 18 -11 23 2 31 8 5 23 10 33 10 10 0 30 9 45 19 28 20 263 60 392
67 500 26 619 29 633 15 5 -5 26 -7 46 -4 62 8 64 10 45 38 l-16 25 -167 -1
c-91 0 -179 -5 -196 -10z m-855 -2034 c0 -8 -4 -15 -10 -15 -5 0 -10 7 -10 15
0 8 5 15 10 15 6 0 10 -7 10 -15z"/>
<path d="M5488 5673 c-18 -21 -30 -63 -18 -63 8 0 60 64 60 74 0 13 -28 5 -42
-11z"/>
<path d="M8195 5649 c-12 -5 9 -8 54 -8 41 -1 71 2 67 6 -10 10 -97 12 -121 2z"/>
<path d="M8357 5654 c-9 -10 2 -24 19 -24 8 0 14 7 14 15 0 15 -21 21 -33 9z"/>
<path d="M8426 5652 c-10 -17 31 -34 52 -23 10 6 28 7 40 4 13 -3 22 -1 22 6
0 6 -11 11 -24 11 -13 0 -37 3 -54 6 -16 3 -32 1 -36 -4z"/>
<path d="M1498 5618 c-7 -4 -35 -8 -63 -8 -65 0 -118 -15 -140 -40 -10 -11
-29 -20 -43 -20 -25 0 -78 -49 -167 -154 -22 -26 -46 -53 -52 -61 -15 -16 -17
-45 -3 -45 6 0 10 -15 10 -34 0 -47 17 -55 26 -11 4 21 15 40 27 46 29 16 87
5 134 -24 22 -14 50 -27 63 -29 30 -4 38 -28 12 -35 -17 -4 -26 -16 -50 -65
-2 -5 2 -8 9 -8 7 0 22 -9 34 -20 33 -31 100 -18 121 21 12 23 21 29 48 29 44
0 66 9 66 26 0 8 7 14 15 14 16 0 21 25 7 34 -5 3 -25 -3 -44 -14 -41 -21 -74
-17 -81 11 -5 17 -7 18 -34 4 -37 -20 -50 -19 -56 4 -3 12 -15 21 -33 23 -39
4 -41 27 -6 63 16 17 32 40 36 51 7 22 15 24 156 38 71 7 136 48 164 103 11
22 24 33 43 35 18 2 29 10 31 22 3 15 0 18 -19 13 -12 -3 -36 1 -53 10 -36 19
-140 33 -158 21z m119 -105 c-6 -18 -19 -35 -30 -39 -25 -8 -125 5 -133 17
-10 17 17 39 42 33 12 -3 32 0 42 8 11 7 35 13 54 13 34 0 35 0 25 -32z m-307
-43 c0 -22 -45 -60 -71 -60 -44 0 -28 52 24 74 37 15 47 12 47 -14z m40 -330
c0 -5 -7 -10 -15 -10 -8 0 -15 5 -15 10 0 6 7 10 15 10 8 0 15 -4 15 -10z"/>
<path d="M6268 5617 c-5 -10 -8 -36 -8 -57 0 -62 -32 -65 -64 -6 -18 33 -86
73 -106 61 -5 -3 -10 -19 -10 -36 0 -28 2 -29 45 -29 37 0 45 -3 45 -19 0 -10
7 -24 16 -32 12 -10 14 -24 9 -68 -11 -100 -12 -96 11 -93 16 2 28 -7 44 -33
36 -59 48 -46 44 48 -8 171 -19 282 -26 264z"/>
<path d="M8596 5623 c-3 -3 -3 -10 0 -14 7 -12 34 -11 34 0 0 11 -26 22 -34
14z"/>
<path d="M5777 5593 c32 -96 80 -143 61 -61 -5 24 -16 51 -25 60 -21 23 -44
24 -36 1z"/>
<path d="M5599 5513 c-1 -10 -1 -26 0 -35 2 -11 -5 -18 -14 -18 -14 0 -16 -6
-11 -35 5 -23 2 -45 -9 -65 -9 -17 -15 -46 -13 -63 3 -32 3 -31 30 23 14 30
27 62 27 70 1 49 8 79 20 93 7 9 11 24 7 32 -8 21 -36 19 -37 -2z"/>
<path d="M2604 5506 c-4 -10 -2 -22 4 -28 8 -8 13 -7 18 6 4 10 2 22 -4 28 -8
8 -13 7 -18 -6z"/>
<path d="M5696 5504 c-7 -19 2 -37 15 -29 12 8 12 45 0 45 -5 0 -12 -7 -15
-16z"/>
<path d="M800 5480 c0 -11 5 -20 10 -20 6 0 10 9 10 20 0 11 -4 20 -10 20 -5
0 -10 -9 -10 -20z"/>
<path d="M3265 5480 c-9 -15 3 -60 15 -60 13 0 13 57 1 65 -5 3 -13 0 -16 -5z"/>
<path d="M2130 5451 c0 -5 -7 -17 -16 -26 -24 -24 -35 -82 -18 -96 10 -9 15
-8 19 2 37 103 42 129 25 129 -5 0 -10 -4 -10 -9z"/>
<path d="M2955 5452 c-31 -6 -36 -16 -22 -37 13 -17 15 -17 36 4 25 25 18 40
-14 33z"/>
<path d="M6030 5421 c-22 -6 -25 -12 -27 -71 -1 -36 -3 -87 -5 -115 -3 -47 -2
-50 23 -53 40 -5 53 19 32 56 -17 30 -17 33 5 94 34 96 31 105 -28 89z"/>
<path d="M2353 5405 c-3 -9 -2 -33 2 -53 4 -20 10 -55 14 -77 l7 -40 8 55 c4
30 5 69 3 85 -3 17 -6 33 -6 38 -2 13 -22 7 -28 -8z"/>
<path d="M2806 5411 c-3 -5 5 -11 19 -13 28 -6 34 6 9 16 -20 8 -22 8 -28 -3z"/>
<path d="M3407 5403 c-14 -15 -22 -15 -47 -6 -41 15 -67 6 -79 -28 -9 -27 -8
-29 14 -29 13 0 26 -4 30 -9 6 -11 125 64 125 79 0 16 -24 12 -43 -7z"/>
<path d="M2190 5371 c0 -23 -8 -48 -20 -64 -21 -27 -26 -62 -11 -72 6 -3 16 9
25 27 16 37 27 148 14 148 -4 0 -8 -17 -8 -39z"/>
<path d="M3084 5394 c3 -9 6 -18 6 -20 0 -2 5 -4 10 -4 6 0 10 9 10 20 0 12
-7 20 -16 20 -11 0 -14 -5 -10 -16z"/>
<path d="M5847 5361 c-3 -27 -10 -58 -15 -68 -5 -10 -18 -38 -30 -62 -12 -24
-20 -46 -17 -49 3 -3 26 17 51 43 33 36 44 54 40 69 -3 12 -6 42 -6 69 0 62
-16 61 -23 -2z"/>
<path d="M2901 5361 c-25 -16 7 -81 40 -81 25 0 26 57 2 76 -21 16 -24 16 -42
5z"/>
<path d="M1501 5336 c-14 -15 -30 -22 -42 -19 -23 6 -25 -9 -4 -27 13 -10 19
-10 34 4 10 9 25 14 35 10 9 -3 23 -4 31 0 12 4 13 10 3 31 -14 31 -28 32 -57
1z"/>
<path d="M3120 5322 c0 -23 5 -42 10 -42 16 0 16 57 -1 75 -5 5 -9 -7 -9 -33z"/>
<path d="M5690 5335 c0 -14 5 -25 10 -25 6 0 10 11 10 25 0 14 -4 25 -10 25
-5 0 -10 -11 -10 -25z"/>
<path d="M6120 5289 c0 -28 -5 -60 -11 -71 -17 -31 17 -50 51 -28 12 8 13 13
2 27 -22 32 -25 44 -14 55 8 8 15 8 27 -2 12 -10 15 -10 15 4 0 9 -8 16 -20
16 -13 0 -24 10 -30 25 -14 38 -20 30 -20 -26z"/>
<path d="M3229 5323 c-1 -5 0 -16 1 -26 1 -10 -4 -25 -11 -33 -16 -19 -3 -31
19 -18 23 15 29 84 8 84 -9 0 -17 -3 -17 -7z"/>
<path d="M762 5300 c-8 -14 -10 -37 -6 -70 5 -39 4 -50 -7 -50 -11 0 -14 -15
-14 -60 0 -39 4 -60 11 -60 16 0 24 24 24 75 0 24 5 47 10 50 12 7 14 135 2
135 -4 0 -13 -9 -20 -20z"/>
<path d="M2078 5303 c-13 -3 -18 -14 -18 -39 0 -22 -9 -48 -25 -68 -18 -23
-27 -51 -31 -94 l-7 -62 34 -14 c19 -8 42 -28 52 -45 17 -29 19 -29 36 -13 10
9 26 22 36 28 13 7 16 14 9 25 -5 8 -10 34 -11 59 -3 83 -13 120 -34 120 -25
0 -36 27 -21 51 23 36 13 59 -20 52z m12 -153 c0 -34 -13 -45 -29 -26 -9 10
-9 20 0 40 15 31 29 25 29 -14z"/>
<path d="M6435 5270 c-3 -10 -3 -35 1 -55 8 -44 -3 -45 -61 -5 -57 39 -87 40
-50 1 39 -41 89 -110 124 -170 45 -77 60 -158 38 -210 -10 -23 -11 -49 -5 -92
4 -33 4 -68 0 -77 -5 -9 -7 -62 -6 -117 9 -300 12 -437 7 -413 -2 15 -12 33
-22 40 -10 7 -23 27 -29 43 -11 28 -11 27 -7 -15 3 -25 9 -81 14 -125 5 -44
14 -115 21 -158 12 -73 11 -79 -6 -92 -17 -13 -18 -14 -1 -15 9 0 17 -6 17
-14 0 -20 -40 -86 -51 -86 -13 0 -11 -37 1 -45 6 -4 17 -1 25 5 22 18 37 2 30
-31 -4 -17 -2 -36 5 -43 6 -8 15 -29 20 -47 8 -25 6 -35 -6 -44 -14 -10 -14
-15 -4 -32 18 -28 7 -51 -27 -55 -34 -4 -72 12 -110 48 -15 15 -55 48 -88 74
-85 68 -127 116 -155 180 -6 14 -24 39 -39 55 -66 71 -84 103 -83 152 1 25 6
51 12 57 5 5 10 17 10 25 0 24 -39 -19 -60 -66 -12 -27 -15 -45 -8 -56 5 -10
6 -21 3 -27 -3 -5 24 -48 60 -95 36 -47 65 -89 65 -92 0 -9 114 -118 261 -249
13 -12 29 -28 35 -35 6 -8 23 -24 38 -36 26 -23 29 -34 31 -163 0 -19 4 -41 9
-48 8 -14 -1 -379 -10 -394 -3 -5 2 -22 10 -39 17 -34 12 -57 -8 -40 -9 8 -12
-10 -13 -75 0 -67 3 -84 13 -80 20 8 17 -17 -7 -69 -15 -32 -18 -49 -11 -58 7
-8 9 -147 5 -432 -10 -761 -10 -700 11 -1205 3 -64 11 -120 20 -142 18 -43 21
-124 5 -133 -13 -8 -98 -21 -274 -40 -71 -8 -175 -19 -230 -25 -55 -6 -120
-15 -145 -21 -53 -11 -188 -27 -280 -33 -36 -3 -87 -8 -115 -11 -41 -5 -58 -2
-95 17 -28 15 -46 33 -50 48 -6 27 -29 39 -31 16 -7 -83 -21 -156 -33 -163
-27 -18 -76 -30 -82 -21 -4 6 -25 7 -53 3 -25 -4 -67 -7 -92 -6 -33 1 -53 -4
-72 -19 -22 -17 -29 -19 -46 -8 -16 9 -27 9 -58 -5 -21 -9 -55 -19 -76 -23
-42 -7 -56 -22 -36 -36 21 -14 184 -5 204 12 10 9 46 14 104 14 68 1 93 5 107
18 15 13 32 15 85 11 48 -4 81 -1 115 11 26 9 78 16 114 16 37 0 89 7 116 15
27 8 81 15 121 15 39 0 84 5 100 11 15 7 85 15 156 19 75 4 132 11 139 18 8 8
48 12 109 12 61 0 112 6 139 15 32 11 88 15 212 16 140 0 168 2 168 14 0 15
-56 129 -76 155 -6 8 -14 24 -17 35 -3 11 -13 40 -23 65 -9 25 -18 74 -20 110
-12 218 -15 944 -5 1350 6 261 14 689 17 950 3 261 9 480 12 485 4 6 7 181 8
390 1 463 12 870 24 910 12 38 19 275 9 275 -4 0 -10 13 -14 29 -7 32 -42 61
-75 61 -17 0 -20 6 -20 40 0 29 -4 40 -15 40 -9 0 -18 7 -21 15 -8 21 -21 19
-29 -5z m153 -197 c2 -9 -7 -13 -27 -13 -21 0 -31 5 -31 16 0 19 51 16 58 -3z"/>
<path d="M987 5273 c-12 -11 -8 -23 8 -23 8 0 15 7 15 15 0 16 -12 20 -23 8z"/>
<path d="M1147 5221 c8 -69 -10 -112 -45 -109 -18 2 -27 -2 -30 -14 -4 -21 51
-47 123 -59 28 -4 65 -11 83 -15 29 -6 32 -4 32 17 0 34 -12 50 -30 39 -24
-15 -80 -12 -80 4 0 8 -6 16 -12 19 -9 3 -6 12 10 29 30 33 28 45 -8 53 -26 6
-29 10 -27 42 1 21 -3 38 -10 40 -9 3 -11 -9 -6 -46z"/>
<path d="M3205 5207 c-4 -10 -5 -21 -1 -24 10 -10 18 4 13 24 -4 17 -4 17 -12
0z"/>
<path d="M2242 5198 c5 -15 28 -18 29 -3 0 6 -7 12 -17 13 -10 3 -15 -1 -12
-10z"/>
<path d="M3292 5188 c-17 -17 -15 -38 3 -38 8 0 15 4 15 9 0 5 3 16 6 25 7 19
-7 21 -24 4z"/>
<path d="M3451 5187 c0 -9 -10 -25 -21 -34 -21 -18 -27 -43 -10 -43 17 0 42
48 37 72 -3 15 -5 17 -6 5z"/>
<path d="M1017 5174 c-14 -14 -7 -25 13 -22 12 2 21 8 21 13 0 12 -24 18 -34
9z"/>
<path d="M1586 5135 c-11 -8 -33 -15 -48 -15 -29 0 -78 -25 -78 -40 0 -17 40
-21 62 -6 12 9 34 16 48 16 15 0 36 11 49 24 19 21 20 24 6 30 -20 7 -16 8
-39 -9z"/>
<path d="M3720 5130 c0 -14 37 -40 59 -40 12 0 24 -6 27 -14 6 -17 54 -9 54
10 0 7 -10 20 -22 28 -25 15 -118 28 -118 16z"/>
<path d="M6020 5110 c-8 -5 -27 -10 -42 -10 -22 0 -28 -5 -28 -22 0 -20 -1
-20 -19 -4 -16 15 -19 15 -31 1 -7 -8 -19 -15 -27 -15 -30 0 -131 -62 -142
-87 -11 -25 -34 -214 -26 -221 2 -2 12 1 23 7 16 8 19 22 19 86 1 65 4 80 24
101 12 13 30 24 40 24 9 0 22 6 28 14 6 7 29 16 52 20 22 3 42 13 45 21 4 8
13 15 22 15 32 0 82 25 88 43 8 24 -7 39 -26 27z"/>
<path d="M3385 5079 c-4 -6 -5 -13 -2 -16 7 -7 27 6 27 18 0 12 -17 12 -25 -2z"/>
<path d="M1580 5051 c0 -17 18 -21 24 -6 3 9 0 15 -9 15 -8 0 -15 -4 -15 -9z"/>
<path d="M6084 5049 c-11 -18 11 -32 25 -16 9 12 8 16 -3 20 -9 4 -18 1 -22
-4z"/>
<path d="M1347 5019 c14 -14 103 -21 103 -7 0 4 -8 8 -17 8 -10 0 -36 3 -58 6
-33 6 -38 4 -28 -7z"/>
<path d="M3886 4991 c-11 -17 15 -71 35 -71 22 0 24 18 7 55 -11 25 -32 33
-42 16z"/>
<path d="M3493 4957 c-13 -18 -23 -37 -23 -41 0 -17 -89 -186 -112 -213 -8
-10 -21 -38 -28 -63 -8 -25 -26 -67 -41 -95 -56 -107 -61 -167 -14 -157 14 2
27 14 31 26 3 11 19 42 35 67 17 26 29 60 29 78 0 19 10 46 26 67 20 26 25 41
20 64 -4 22 -1 32 9 36 10 4 15 20 15 44 0 24 5 40 14 43 8 3 22 23 31 44 9
21 23 53 31 71 28 65 13 83 -23 29z"/>
<path d="M2168 4951 c-14 -26 -14 -30 -1 -35 34 -13 44 -7 41 26 -4 41 -19 45
-40 9z"/>
<path d="M6085 4948 c-11 -6 -32 -23 -47 -37 l-26 -27 35 1 c27 0 41 7 56 28
24 32 14 52 -18 35z"/>
<path d="M1494 4924 c3 -9 6 -18 6 -20 0 -3 5 -2 10 1 16 10 12 35 -6 35 -11
0 -14 -5 -10 -16z"/>
<path d="M640 4880 c0 -11 7 -20 15 -20 8 0 15 9 15 20 0 11 -7 20 -15 20 -8
0 -15 -9 -15 -20z"/>
<path d="M5463 4893 c-24 -5 -30 -18 -13 -28 5 -3 20 3 32 14 12 12 18 20 12
20 -5 -1 -19 -4 -31 -6z"/>
<path d="M2190 4840 c0 -46 11 -52 28 -15 17 38 15 55 -8 55 -17 0 -20 -7 -20
-40z"/>
<path d="M3576 4872 c-4 -7 -8 -35 -8 -62 -1 -28 -5 -53 -10 -56 -4 -3 -8 -17
-8 -32 0 -15 -6 -37 -14 -48 -8 -11 -17 -42 -21 -69 -4 -28 -16 -68 -26 -89
-11 -22 -19 -61 -19 -87 0 -29 -6 -51 -15 -59 -18 -15 -21 -100 -4 -117 8 -8
6 -21 -9 -50 -12 -21 -23 -65 -25 -101 -5 -57 -3 -65 19 -87 20 -21 24 -34 24
-89 0 -36 5 -68 11 -72 6 -3 8 -17 5 -30 -4 -15 3 -42 19 -74 14 -27 25 -58
25 -69 0 -10 7 -32 15 -47 8 -16 15 -38 15 -49 0 -11 7 -54 16 -95 17 -79 33
-174 38 -226 1 -16 6 -35 9 -41 8 -12 35 -229 43 -333 3 -36 8 -105 13 -155 4
-52 4 -104 -1 -124 -15 -54 -15 -415 0 -485 7 -34 20 -117 28 -186 8 -69 17
-138 20 -155 5 -25 6 -86 5 -182 0 -10 2 -43 6 -73 3 -30 5 -80 5 -110 -2 -90
59 -390 99 -490 10 -25 20 -75 24 -112 6 -71 22 -128 36 -128 20 0 33 -51 40
-153 4 -59 12 -114 19 -121 21 -26 28 -72 19 -127 -7 -43 -6 -56 6 -65 8 -6
15 -19 15 -28 0 -9 8 -16 19 -16 10 0 24 -7 31 -15 7 -9 21 -13 31 -10 14 5
22 -1 30 -22 6 -15 17 -41 24 -58 8 -16 16 -40 20 -52 5 -18 14 -23 41 -23 28
0 34 4 34 21 0 11 -6 33 -13 47 -77 155 -117 214 -134 200 -18 -14 -16 -38 2
-38 8 0 15 -9 15 -20 0 -11 -3 -20 -7 -20 -22 1 -40 30 -46 73 -5 38 -2 57 14
89 17 34 19 47 11 74 -8 26 -7 36 4 45 10 8 12 15 4 23 -5 5 -10 20 -10 32 0
13 -4 26 -10 29 -19 12 -79 131 -91 180 -6 28 -16 55 -20 61 -9 11 -47 209
-58 304 -4 30 -13 65 -21 77 -12 18 -12 28 -1 61 8 23 10 48 6 59 -4 10 -9 70
-10 133 -4 141 -21 367 -35 435 -5 28 -12 75 -15 105 -3 30 -12 84 -20 120
-43 197 -52 375 -24 465 20 66 13 413 -10 489 -5 17 -14 72 -20 121 -15 126
-30 225 -41 260 -5 17 -16 59 -25 95 -9 36 -21 79 -27 95 -5 17 -14 53 -18 82
-5 28 -12 58 -16 65 -4 7 -14 67 -21 133 -7 66 -19 179 -26 250 -14 125 -14
131 5 151 10 12 21 34 24 50 3 16 10 34 16 41 6 8 14 30 19 51 4 20 15 64 23
97 33 133 45 192 46 222 0 35 -42 93 -67 93 -9 0 -21 7 -28 17 -8 11 -14 13
-19 5z"/>
<path d="M5900 4849 c0 -29 18 -59 36 -59 11 0 14 6 9 23 -4 12 -9 30 -11 40
-7 24 -34 21 -34 -4z"/>
<path d="M2870 4840 c0 -11 5 -20 10 -20 6 0 10 9 10 20 0 11 -4 20 -10 20 -5
0 -10 -9 -10 -20z"/>
<path d="M5995 4820 c-10 -16 4 -49 26 -60 10 -6 19 -15 19 -21 0 -17 54 -58
76 -59 11 0 25 -5 32 -12 6 -6 15 -8 19 -4 5 5 -1 13 -12 20 -22 13 -67 58
-108 110 -30 37 -41 43 -52 26z"/>
<path d="M582 4808 c-7 -7 -12 -19 -12 -27 0 -11 4 -10 20 4 21 19 26 35 12
35 -4 0 -13 -5 -20 -12z"/>
<path d="M5427 4813 c-11 -10 -8 -111 3 -118 6 -4 10 7 10 27 0 18 7 46 15 62
8 15 15 30 15 32 0 7 -36 4 -43 -3z"/>
<path d="M3146 4782 c-2 -4 -1 -14 5 -22 14 -24 10 -41 -8 -38 -14 2 -18 -3
-16 -27 7 -78 14 -142 19 -165 11 -47 26 6 27 91 0 63 4 82 19 96 10 9 18 23
18 31 0 27 -51 54 -64 34z"/>
<path d="M5640 4759 c0 -18 12 -50 29 -74 16 -24 35 -60 42 -82 18 -53 22 -56
71 -56 81 0 97 24 53 78 -16 19 -28 26 -33 19 -4 -6 -24 -14 -44 -18 -36 -6
-38 -5 -38 18 0 14 -4 28 -10 31 -5 3 -10 17 -10 31 0 15 -6 24 -15 24 -9 0
-18 12 -21 30 -8 39 -24 39 -24 -1z"/>
<path d="M5777 4773 c-8 -7 2 -84 12 -95 4 -4 11 17 17 47 9 48 8 55 -6 55 -9
0 -20 -3 -23 -7z"/>
<path d="M514 4740 c-36 -23 -56 -86 -32 -101 16 -10 19 -6 52 53 40 72 35 83
-20 48z"/>
<path d="M2100 4695 c-19 -13 -41 -24 -48 -24 -13 -1 -52 -16 -109 -43 -41
-20 -117 -90 -159 -146 -23 -31 -53 -67 -67 -79 -14 -12 -39 -41 -54 -65 -15
-24 -31 -45 -34 -48 -4 -3 -16 -23 -28 -45 -16 -31 -21 -56 -20 -115 2 -147
27 -176 63 -78 12 32 27 63 34 70 7 7 12 23 13 38 0 36 49 70 122 86 34 7 75
17 90 23 15 6 85 20 156 32 121 19 131 20 161 4 24 -13 38 -14 63 -6 48 15
232 6 261 -12 30 -20 53 -74 40 -95 -8 -11 -3 -23 18 -46 16 -17 26 -37 23
-44 -3 -8 -5 -26 -5 -42 0 -34 -25 -63 -49 -55 -15 5 -17 -2 -16 -52 2 -45 6
-58 21 -64 29 -12 31 -11 41 19 26 71 33 102 39 172 4 41 13 87 21 102 26 54
-14 166 -70 194 -12 6 -62 21 -112 33 -49 12 -106 26 -126 32 -52 13 -163 11
-239 -5 -36 -8 -68 -12 -72 -10 -4 3 -21 -2 -37 -11 -17 -8 -39 -15 -51 -15
-11 0 -37 -9 -57 -20 -21 -11 -45 -20 -53 -20 -8 0 -32 -11 -52 -25 -47 -32
-68 -32 -68 -1 0 34 150 194 207 221 19 9 43 25 54 36 10 10 26 19 35 19 9 0
27 9 41 20 14 11 41 20 59 20 40 0 47 9 31 40 -16 32 -26 33 -67 5z m-370
-393 c0 -8 -43 -32 -55 -32 -3 0 -5 9 -5 20 0 16 7 20 30 20 17 0 30 -4 30 -8z"/>
<path d="M2243 4671 l-20 -40 22 -21 c20 -19 23 -19 35 -5 7 9 14 35 14 58 1
58 -25 62 -51 8z"/>
<path d="M5300 4662 c0 -4 9 -13 20 -20 24 -14 27 -60 5 -68 -8 -4 -15 -12
-15 -19 0 -8 -6 -20 -13 -27 -7 -7 -16 -20 -19 -29 -3 -9 -23 -24 -43 -33 -20
-10 -53 -33 -72 -51 l-36 -34 17 -36 c19 -39 24 -40 31 -5 5 28 5 28 30 30 44
5 47 2 39 -45 -3 -25 -3 -45 1 -45 4 0 25 16 48 35 22 19 49 35 58 35 24 0
138 117 159 164 3 6 13 23 24 38 20 30 16 58 -8 58 -19 0 -56 -52 -56 -78 0
-20 -82 -150 -104 -164 -6 -4 -18 -5 -26 -1 -8 3 -25 6 -37 7 -30 1 -36 11
-18 26 8 7 15 21 15 32 0 36 44 118 62 118 30 0 23 61 -10 93 -27 26 -52 35
-52 19z"/>
<path d="M5910 4623 c7 -56 23 -88 46 -97 23 -9 29 0 17 27 -64 136 -73 147
-63 70z"/>
<path d="M2577 4616 c-4 -9 4 -28 18 -43 l24 -28 1 26 c0 33 -34 68 -43 45z"/>
<path d="M6120 4522 c0 -19 10 -38 30 -55 17 -15 30 -33 30 -39 0 -9 3 -9 11
-1 18 18 -36 123 -63 123 -4 0 -8 -13 -8 -28z"/>
<path d="M5867 4513 c-14 -13 -7 -63 13 -96 11 -19 18 -41 15 -50 -4 -8 -2
-18 4 -21 6 -4 8 -19 5 -34 -4 -20 0 -33 15 -46 23 -21 23 -22 25 49 1 42 4
50 21 53 16 2 23 -6 33 -37 15 -50 15 -78 1 -87 -7 -4 -9 -21 -4 -48 5 -22 7
-58 6 -78 -1 -21 3 -38 9 -38 5 0 10 -14 10 -31 0 -37 17 -35 41 7 21 35 15
87 -12 123 -21 26 -25 56 -9 66 6 3 10 21 10 38 0 24 -11 45 -45 81 -25 27
-45 54 -45 59 0 5 -16 24 -35 43 -19 18 -35 37 -35 43 0 12 -13 15 -23 4z"/>
<path d="M880 4494 c0 -3 14 -19 30 -34 24 -22 30 -36 29 -67 -2 -62 -12 -86
-41 -94 -37 -10 -134 -105 -158 -155 -11 -23 -36 -55 -55 -73 -19 -17 -35 -38
-35 -46 0 -8 -4 -15 -9 -15 -5 0 -17 -22 -26 -49 -8 -26 -36 -79 -61 -116 -45
-67 -68 -114 -61 -122 10 -9 54 20 72 48 11 16 26 31 33 34 30 11 -2 -66 -44
-106 -14 -13 -30 -33 -35 -44 -6 -11 -16 -31 -23 -44 l-14 -23 -11 21 c-16 28
-23 27 -45 -10 -17 -28 -18 -46 -13 -141 4 -66 12 -120 22 -138 8 -16 15 -40
15 -53 0 -14 6 -30 14 -37 8 -6 13 -17 10 -24 -2 -6 2 -20 10 -31 15 -19 15
-18 16 13 0 17 -4 32 -9 32 -12 0 -23 62 -13 72 15 15 43 -4 49 -33 11 -56 33
-28 23 31 -4 26 -10 34 -22 32 -26 -4 -47 37 -54 106 -8 69 11 123 62 177 49
52 114 159 114 187 0 19 18 47 63 95 34 37 64 70 67 73 12 10 50 68 50 75 0 4
-14 -7 -32 -24 -17 -17 -39 -31 -48 -31 -9 0 -24 -15 -35 -32 -14 -24 -20 -29
-23 -16 -2 9 8 29 22 45 14 15 34 37 44 49 10 12 24 23 31 25 7 3 14 19 15 35
2 38 19 60 51 67 21 3 25 0 25 -19 0 -17 -6 -24 -20 -24 -20 0 -38 -25 -27
-36 24 -24 159 55 137 81 -16 19 15 74 39 68 21 -5 61 28 61 52 0 26 -35 81
-81 128 -24 26 -52 57 -62 72 -16 22 -47 35 -47 19z"/>
<path d="M6194 4386 c-7 -18 13 -93 27 -102 11 -7 58 42 59 62 0 16 -44 54
-63 54 -10 0 -20 -6 -23 -14z"/>
<path d="M6318 4263 c-5 -42 0 -73 12 -73 12 0 19 39 13 76 -7 45 -20 43 -25
-3z"/>
<path d="M5133 4283 c-7 -2 -13 -17 -13 -33 0 -16 -7 -35 -15 -44 -8 -8 -15
-21 -15 -29 0 -8 -9 -24 -20 -37 -11 -13 -20 -31 -20 -41 0 -10 -5 -21 -11
-25 -6 -3 -9 -17 -6 -30 5 -28 -7 -49 -22 -39 -8 4 -10 18 -6 36 6 24 3 29
-19 35 -34 8 -46 -2 -46 -40 0 -52 -27 -96 -58 -96 -34 0 -59 -34 -41 -56 9
-12 6 -14 -19 -14 l-30 0 1 -60 c2 -57 17 -78 26 -34 2 10 12 30 22 43 11 13
19 29 19 35 0 7 24 11 67 11 67 0 68 0 71 28 2 16 11 37 20 47 33 36 41 49 74
110 18 34 52 84 76 110 23 26 42 52 42 57 0 8 -56 74 -62 72 -2 0 -9 -3 -15
-6z"/>
<path d="M5450 4275 c-10 -12 -9 -16 5 -21 16 -6 34 9 35 29 0 13 -27 8 -40
-8z"/>
<path d="M5070 4246 c0 -19 -4 -38 -10 -41 -5 -3 -10 -16 -9 -28 l0 -22 9 23
c5 12 13 22 18 22 5 0 9 18 10 40 1 22 -3 40 -8 40 -6 0 -10 -15 -10 -34z"/>
<path d="M295 4150 c-38 -43 -75 -79 -81 -79 -6 -1 -32 -33 -59 -72 -27 -39
-58 -75 -69 -81 -26 -12 -61 -77 -48 -90 14 -14 60 14 114 69 34 36 48 59 53
91 4 23 11 42 16 42 5 0 9 -4 9 -10 0 -5 5 -10 10 -10 6 0 10 11 10 23 0 16
22 46 65 89 40 40 65 73 65 86 0 12 -3 22 -7 21 -5 0 -39 -36 -78 -79z"/>
<path d="M2120 4210 c0 -5 -16 -18 -35 -30 -29 -18 -40 -20 -72 -11 -54 15
-93 14 -99 -4 -4 -8 -13 -15 -22 -15 -8 0 -24 -8 -34 -17 -13 -11 -37 -17 -81
-17 -57 -1 -62 -3 -63 -23 -2 -28 -23 -83 -42 -105 -18 -22 -33 -86 -20 -90 5
-2 11 -17 12 -34 3 -49 71 -121 154 -164 23 -12 42 -26 42 -31 0 -5 6 -9 12
-9 16 0 118 -69 140 -95 10 -11 18 -27 18 -35 0 -8 4 -21 9 -29 8 -12 13 -12
35 3 44 28 47 24 -119 165 -33 28 -72 56 -86 63 -40 20 -139 110 -156 142 -11
21 -12 35 -5 50 5 11 15 34 21 49 10 25 14 27 47 21 27 -5 42 -2 62 13 44 33
128 23 193 -21 48 -34 109 -48 109 -27 0 10 -56 41 -74 41 -19 0 -77 61 -74
79 2 12 19 17 68 22 36 3 79 11 95 17 17 6 73 10 125 9 91 -2 94 -3 100 -27 5
-22 11 -25 48 -25 37 0 45 4 63 32 l21 32 -29 0 c-36 0 -151 11 -181 17 -18 4
-21 9 -16 28 4 18 1 25 -13 29 -31 8 -153 6 -153 -3z"/>
<path d="M1090 4195 c0 -8 -4 -15 -10 -15 -16 0 -11 -84 6 -109 10 -14 19 -51
22 -90 4 -58 2 -68 -17 -85 -12 -11 -21 -31 -21 -46 0 -19 -8 -33 -26 -45 -14
-9 -33 -33 -43 -53 -9 -20 -31 -53 -49 -72 -17 -19 -32 -39 -32 -44 0 -5 -7
-17 -15 -26 -23 -25 -23 -171 -1 -205 9 -14 26 -52 36 -83 34 -105 79 -204
109 -242 l21 -25 0 62 c0 34 4 73 10 88 19 49 28 135 15 135 -13 0 -62 42 -85
73 -22 30 -30 100 -13 119 12 13 12 21 3 38 -14 26 -7 50 14 50 9 0 20 9 26
20 6 12 19 19 32 17 18 -2 25 8 43 58 35 94 59 140 74 140 13 0 43 -40 56 -75
4 -8 15 -33 26 -55 10 -22 19 -46 19 -53 0 -22 35 -100 80 -177 16 -27 29 -58
29 -68 1 -28 44 -95 63 -101 27 -6 30 9 7 30 -43 38 -48 104 -8 104 26 0 24
15 -11 67 -16 24 -30 46 -30 50 0 3 -13 25 -30 50 -16 24 -30 55 -30 68 0 13
-31 86 -68 162 -66 132 -95 192 -124 258 -36 80 -78 123 -78 80z"/>
<path d="M5399 4183 c-42 -35 -59 -55 -56 -67 5 -14 80 -13 84 2 3 6 -2 12
-11 12 -9 0 -16 5 -16 10 0 6 5 10 10 10 11 0 34 50 27 57 -3 2 -20 -9 -38
-24z"/>
<path d="M5530 4168 c0 -22 17 -41 29 -34 19 12 13 46 -9 46 -11 0 -20 -6 -20
-12z"/>
<path d="M5665 4119 c-4 -6 -3 -15 3 -21 6 -6 11 -4 15 6 7 18 -9 31 -18 15z"/>
<path d="M2847 4008 c3 -35 9 -67 14 -72 5 -6 9 -29 9 -53 0 -23 6 -62 14 -85
8 -24 17 -63 21 -88 4 -25 14 -57 21 -72 8 -15 14 -54 14 -87 0 -62 10 -81 30
-57 8 11 9 20 0 35 -6 12 -10 42 -9 68 2 63 -7 147 -19 170 -19 36 -44 166
-46 231 -2 64 -3 67 -28 70 l-26 3 5 -63z"/>
<path d="M2233 3981 c-30 -25 -29 -31 5 -31 26 0 62 25 62 43 0 14 -46 6 -67
-12z"/>
<path d="M5319 3984 c-7 -9 -15 -43 -17 -77 -3 -37 -11 -69 -20 -80 -25 -28 0
-42 25 -15 14 16 22 42 26 83 3 33 8 70 12 83 8 26 -6 29 -26 6z"/>
<path d="M4620 3974 c0 -9 5 -14 12 -12 18 6 21 28 4 28 -9 0 -16 -7 -16 -16z"/>
<path d="M917 3891 c-16 -17 -23 -32 -17 -36 5 -3 10 -11 10 -17 0 -7 -5 -6
-15 2 -11 9 -19 7 -37 -10 -18 -17 -20 -23 -9 -30 12 -7 12 -13 -2 -42 -10
-21 -13 -36 -6 -43 15 -15 43 8 54 47 5 18 20 47 33 62 12 16 22 37 22 47 0
10 5 21 10 24 6 3 10 10 10 16 0 18 -26 8 -53 -20z"/>
<path d="M3127 3913 c-11 -10 -8 -71 3 -78 6 -4 10 12 10 39 0 47 -2 51 -13
39z"/>
<path d="M4512 3908 c7 -20 48 -23 48 -4 0 11 -9 16 -26 16 -16 0 -24 -5 -22
-12z"/>
<path d="M4770 3906 c0 -8 5 -18 10 -21 6 -3 10 1 10 9 0 8 -4 18 -10 21 -5 3
-10 -1 -10 -9z"/>
<path d="M6320 3856 c0 -13 -7 -26 -15 -30 -22 -8 -18 -28 9 -53 45 -43 77
-21 35 24 -17 17 -19 25 -10 36 12 15 5 47 -10 47 -5 0 -9 -11 -9 -24z"/>
<path d="M5079 3843 c-11 -31 1 -49 26 -39 11 4 15 12 11 22 -3 9 -6 22 -6 30
0 24 -20 16 -31 -13z"/>
<path d="M2543 3841 c-34 -17 -38 -34 -9 -39 18 -4 56 29 56 48 0 13 -7 11
-47 -9z"/>
<path d="M3128 3804 c-12 -12 -10 -184 2 -184 6 0 13 6 15 13 8 19 -9 180 -17
171z"/>
<path d="M4897 3804 c-2 -3 -2 -26 1 -51 l5 -46 -36 6 c-41 6 -49 -4 -33 -44
12 -33 -2 -53 -53 -77 -20 -10 -43 -31 -52 -49 -9 -17 -24 -44 -35 -60 -27
-40 -54 -102 -54 -124 0 -10 -4 -20 -9 -24 -5 -3 -12 -19 -16 -36 -4 -17 -13
-42 -21 -57 -8 -15 -14 -34 -14 -43 0 -9 -7 -30 -15 -45 -8 -16 -15 -37 -15
-46 0 -10 -9 -22 -20 -28 -15 -8 -20 -21 -20 -50 0 -22 -4 -40 -9 -40 -12 0
-31 -56 -31 -90 0 -14 -7 -35 -15 -46 -20 -27 -19 -44 4 -44 25 0 36 -16 16
-24 -8 -3 -15 -13 -15 -23 0 -10 -5 -25 -10 -33 -8 -13 -11 -12 -24 5 -15 20
-15 20 -16 -3 0 -15 8 -26 25 -32 29 -11 31 -22 9 -41 -15 -12 -16 -31 -9
-159 4 -80 7 -156 6 -169 0 -12 2 -27 5 -33 3 -5 7 -29 9 -53 3 -46 32 -154
47 -169 5 -6 13 -5 20 2 7 7 21 12 31 12 10 0 21 8 24 19 2 10 16 24 29 30 25
11 31 35 14 61 -8 13 -13 13 -31 2 -11 -7 -22 -12 -23 -10 -1 2 -8 14 -14 28
-7 14 -19 36 -27 50 -13 24 -15 55 -15 230 -1 41 -3 87 -6 101 -4 21 -1 28 15
32 19 5 26 26 22 63 -1 6 6 17 14 24 8 7 15 28 15 47 0 30 -2 33 -19 23 -21
-11 -43 6 -24 19 5 3 10 24 10 46 1 90 15 146 54 227 5 10 9 26 9 35 0 10 16
53 35 97 18 43 37 91 40 108 11 48 95 209 106 202 15 -9 2 -69 -27 -127 -13
-27 -24 -61 -24 -75 0 -33 -8 -45 -38 -61 -16 -8 -21 -18 -17 -30 3 -10 -6
-51 -21 -90 -23 -63 -25 -74 -12 -87 12 -12 18 -9 43 26 17 22 33 40 38 40 4
0 7 11 7 24 0 13 8 34 18 47 20 25 49 100 62 159 4 19 26 76 49 125 93 206
117 290 89 312 -18 14 -45 23 -51 17z"/>
<path d="M4673 3755 c-3 -9 -3 -18 0 -21 9 -9 27 6 27 22 0 19 -19 18 -27 -1z"/>
<path d="M2360 3730 c0 -11 -7 -20 -15 -20 -8 0 -15 -9 -15 -20 0 -25 18 -26
27 -2 4 9 15 23 25 30 20 14 16 32 -8 32 -8 0 -14 -9 -14 -20z"/>
<path d="M5206 3732 c-2 -4 -1 -14 4 -22 7 -11 12 -12 21 -3 6 6 8 16 5 22 -8
13 -23 14 -30 3z"/>
<path d="M5300 3711 c-13 -26 -13 -31 5 -31 9 0 15 9 15 25 0 30 -6 32 -20 6z"/>
<path d="M8880 3698 c-36 -5 -99 -12 -140 -16 -63 -6 -83 -12 -123 -42 -42
-29 -47 -38 -42 -60 9 -36 10 -36 52 -2 44 35 127 61 233 72 118 13 140 20
140 41 0 21 -11 22 -120 7z"/>
<path d="M798 3676 c-10 -7 -18 -21 -18 -30 0 -10 -11 -37 -25 -62 -14 -25
-25 -51 -25 -58 0 -8 -9 -20 -21 -27 -25 -17 -38 -75 -39 -171 0 -58 3 -68 18
-68 21 0 47 74 62 180 11 76 27 137 42 155 4 5 8 18 8 30 0 12 5 26 11 32 18
18 7 33 -13 19z"/>
<path d="M5158 3652 c-26 -43 -14 -68 39 -81 25 -7 55 -18 67 -26 25 -17 42
-9 25 12 -6 7 -9 22 -6 34 5 17 -1 24 -24 32 -20 8 -29 18 -29 34 0 36 -50 32
-72 -5z"/>
<path d="M2292 3644 c-12 -8 -22 -22 -22 -30 0 -19 16 -18 24 1 3 8 15 15 26
15 11 0 20 7 20 15 0 19 -20 19 -48 -1z"/>
<path d="M5410 3598 c0 -7 -11 -30 -25 -50 -20 -29 -25 -49 -25 -96 0 -32 3
-62 6 -65 4 -4 21 7 37 23 17 17 35 30 40 30 5 0 21 13 37 29 22 22 42 30 84
35 35 5 60 14 72 27 18 20 18 21 0 35 -11 7 -29 11 -40 8 -12 -3 -41 -6 -66
-8 -55 -4 -80 -14 -80 -32 0 -8 -5 -14 -10 -14 -6 0 -9 18 -8 41 2 27 -2 43
-9 46 -7 3 -13 -1 -13 -9z"/>
<path d="M1080 3584 c-19 -6 -36 -19 -38 -28 -4 -17 23 -22 33 -6 3 6 15 10
25 10 10 0 22 5 26 11 12 19 -10 26 -46 13z"/>
<path d="M4992 3518 c-7 -7 -12 -23 -12 -36 0 -12 -9 -40 -19 -60 -11 -20 -27
-59 -36 -87 -31 -95 -47 -150 -54 -185 -9 -43 -38 -100 -50 -100 -5 0 -12 -13
-16 -29 -3 -15 -13 -37 -21 -47 -37 -48 -84 -127 -84 -143 0 -25 -11 -33 -27
-19 -18 15 -25 6 -33 -44 -4 -24 -13 -64 -20 -89 -7 -25 -10 -54 -6 -64 6 -17
7 -17 27 1 14 12 18 25 14 41 -4 18 0 24 19 29 23 5 56 55 56 83 0 18 42 71
52 65 11 -7 10 -52 -2 -59 -15 -9 -12 -25 5 -25 17 0 28 50 23 111 -2 30 1 43
9 42 6 -2 17 14 23 33 7 20 18 48 26 62 8 15 14 34 14 42 0 8 11 38 25 65 13
28 25 59 25 70 0 11 6 31 13 45 7 14 24 59 36 100 25 80 25 80 51 152 9 26 15
50 12 53 -9 9 -38 5 -50 -7z"/>
<path d="M5730 3483 c0 -30 24 -73 41 -73 14 0 11 26 -6 40 -8 7 -15 21 -15
31 0 10 -4 21 -10 24 -6 4 -10 -6 -10 -22z"/>
<path d="M2977 3474 c-10 -10 -9 -54 2 -54 5 0 11 6 14 13 6 16 -7 50 -16 41z"/>
<path d="M1100 3439 c0 -17 4 -28 10 -24 6 3 10 17 10 31 0 13 -4 24 -10 24
-5 0 -10 -14 -10 -31z"/>
<path d="M3085 3443 c-4 -16 -11 -47 -17 -70 -6 -23 -7 -57 -4 -75 4 -18 9
-46 11 -63 17 -106 22 -91 23 68 1 92 -1 167 -3 167 -3 0 -7 -12 -10 -27z"/>
<path d="M5184 3448 c-10 -33 -8 -98 3 -109 7 -7 12 0 16 19 3 16 13 37 22 46
15 14 15 18 -2 41 -22 30 -30 31 -39 3z"/>
<path d="M2180 3429 c0 -14 41 -48 58 -49 20 0 14 15 -18 38 -33 25 -40 27
-40 11z"/>
<path d="M1981 3390 c-12 -22 -26 -40 -32 -40 -5 0 -9 -7 -9 -15 0 -19 29 -19
54 0 18 14 32 95 17 95 -4 0 -17 -18 -30 -40z"/>
<path d="M5252 3384 c5 -25 35 -41 49 -27 8 8 3 15 -21 28 -30 15 -32 15 -28
-1z"/>
<path d="M5790 3378 c0 -10 4 -18 10 -18 5 0 13 -14 18 -32 10 -39 32 -49 32
-15 0 14 3 33 7 42 5 14 2 16 -16 10 -16 -5 -27 -1 -36 12 -13 17 -14 17 -15
1z"/>
<path d="M5325 3371 c-7 -12 12 -24 25 -16 11 7 4 25 -10 25 -5 0 -11 -4 -15
-9z"/>
<path d="M5673 3372 c-29 -18 -28 -112 2 -112 19 0 33 28 37 75 3 40 -12 55
-39 37z"/>
<path d="M2260 3360 c0 -5 11 -10 25 -10 14 0 25 5 25 10 0 6 -11 10 -25 10
-14 0 -25 -4 -25 -10z"/>
<path d="M8571 3356 c-14 -16 -9 -46 7 -46 21 0 32 26 19 44 -12 16 -14 16
-26 2z"/>
<path d="M5381 3339 c-13 -10 -29 -19 -37 -19 -8 0 -14 -6 -14 -13 0 -21 22
-37 52 -37 18 0 36 -10 51 -26 19 -23 67 -54 82 -54 3 0 5 16 5 36 0 28 3 35
15 30 12 -4 15 3 15 29 0 42 -10 44 -46 10 -39 -36 -65 -29 -84 22 l-15 41
-24 -19z"/>
<path d="M2322 3323 c2 -10 26 -29 53 -42 28 -13 72 -35 98 -48 46 -24 77 -25
77 -3 0 5 -15 17 -32 25 -18 9 -62 31 -98 50 -74 39 -103 44 -98 18z"/>
<path d="M1329 3296 c13 -16 5 -152 -9 -171 -11 -15 -18 -162 -8 -177 6 -10
10 -10 18 2 5 8 10 24 11 35 3 37 5 50 13 95 7 44 15 121 17 168 1 13 -8 32
-20 43 -24 22 -39 26 -22 5z"/>
<path d="M6865 3261 c3 -17 2 -32 -4 -36 -15 -9 -14 -25 2 -25 15 0 34 48 29
73 -2 9 -10 17 -19 17 -11 0 -13 -7 -8 -29z"/>
<path d="M3153 3240 c0 -25 2 -35 4 -22 2 12 2 32 0 45 -2 12 -4 2 -4 -23z"/>
<path d="M5140 3218 c-11 -24 -20 -59 -20 -79 0 -25 -8 -43 -26 -60 -19 -18
-24 -31 -20 -50 8 -42 -3 -70 -28 -67 -18 3 -21 9 -18 42 3 26 0 36 -7 32 -6
-4 -11 -19 -11 -34 0 -15 -9 -35 -20 -45 -11 -9 -20 -25 -20 -34 0 -10 -7 -27
-15 -37 -8 -11 -15 -30 -15 -41 0 -12 -7 -36 -16 -53 -16 -33 -16 -101 1 -105
6 -1 12 19 15 45 6 46 34 93 51 82 12 -7 12 -121 0 -128 -16 -10 -19 -45 -5
-57 11 -9 16 -6 24 15 5 14 14 26 18 26 5 0 12 19 16 42 4 23 14 50 23 60 9
11 13 24 8 35 -6 16 -8 15 -17 -7 -9 -23 -10 -24 -19 -7 -15 26 -5 44 30 52
20 4 37 17 46 36 9 16 27 36 40 45 19 12 23 22 19 40 -4 16 1 30 18 46 49 48
118 171 118 211 0 18 -17 22 -37 9 -23 -14 -62 -82 -57 -97 7 -18 -12 -45 -31
-45 -8 0 -11 8 -8 21 3 11 0 32 -8 45 -10 20 -10 29 -1 44 15 24 15 47 2 55
-6 4 -19 -13 -30 -37z m12 -200 c-15 -15 -26 -4 -18 18 5 13 9 15 18 6 9 -9 9
-15 0 -24z m-63 -111 c-9 -35 -31 -48 -44 -27 -11 17 6 51 28 59 12 5 23 8 24
7 1 -1 -2 -19 -8 -39z"/>
<path d="M1400 3221 c0 -5 3 -17 6 -26 5 -13 8 -14 15 -3 13 20 11 38 -6 38
-8 0 -15 -4 -15 -9z"/>
<path d="M2570 3210 c0 -5 6 -10 14 -10 7 0 19 -7 26 -15 14 -17 30 -20 30 -5
0 6 -5 10 -11 10 -6 0 -17 7 -25 15 -18 17 -34 20 -34 5z"/>
<path d="M532 3191 c4 -13 18 -16 19 -4 0 4 -5 9 -11 12 -7 2 -11 -2 -8 -8z"/>
<path d="M678 3175 c-10 -11 14 -78 48 -130 18 -27 39 -66 47 -86 8 -20 20
-40 26 -43 6 -4 11 -21 11 -37 0 -38 77 -119 114 -119 13 0 29 -7 36 -15 7 -8
21 -15 31 -15 11 0 19 -4 19 -10 0 -13 52 -38 68 -33 14 5 16 -13 2 -22 -16
-10 -12 -19 20 -37 28 -16 30 -21 30 -76 0 -62 8 -78 54 -106 41 -26 57 -7 32
39 -11 19 -23 35 -27 35 -7 0 -29 54 -29 71 0 17 37 9 55 -11 27 -30 37 -24
33 18 -3 35 -5 37 -36 37 -24 1 -39 9 -57 30 -13 17 -24 35 -25 42 0 6 -17 32
-39 57 -21 24 -53 67 -71 94 -29 45 -35 49 -51 39 -11 -7 -25 -24 -32 -39 -15
-34 -18 -34 -68 -1 l-41 27 22 18 c29 24 19 52 -36 104 -25 23 -44 50 -44 62
0 23 -81 117 -92 107z m309 -372 c17 -25 7 -34 -24 -22 -14 5 -23 17 -23 29 0
27 27 23 47 -7z"/>
<path d="M5562 3158 c-6 -6 -12 -17 -12 -23 0 -6 -33 -36 -73 -67 l-72 -55 0
-89 c1 -140 -14 -266 -40 -331 -25 -62 -119 -183 -141 -183 -9 0 -14 12 -14
33 0 29 -24 67 -42 67 -3 0 -8 -30 -12 -66 -4 -37 -13 -76 -21 -88 -8 -11 -15
-34 -15 -51 0 -16 -10 -43 -23 -58 -20 -26 -25 -27 -48 -17 -22 10 -31 9 -53
-5 -14 -10 -26 -24 -26 -31 0 -8 -10 -14 -26 -14 -16 0 -24 -5 -21 -12 2 -7
13 -12 23 -10 10 2 44 5 74 6 30 1 63 6 72 10 27 12 41 -3 35 -40 -3 -18 -1
-46 5 -62 9 -23 8 -36 -8 -68 l-19 -39 -73 4 c-59 2 -77 0 -92 -14 -12 -11
-28 -15 -42 -12 -19 5 -37 -6 -91 -57 -86 -81 -93 -115 -13 -61 20 14 42 25
47 25 6 0 22 9 36 20 14 11 29 17 34 15 4 -3 25 1 45 10 34 14 39 14 61 0 26
-18 25 -24 -24 -79 -18 -20 -42 -36 -54 -36 -15 0 -19 -4 -15 -16 7 -19 -32
-54 -51 -47 -8 3 -13 -3 -13 -15 0 -12 -16 -30 -40 -46 -21 -14 -49 -39 -61
-56 -13 -16 -29 -30 -36 -30 -7 0 -21 -15 -30 -34 -9 -19 -25 -37 -36 -40 -15
-4 -18 -11 -15 -31 4 -17 1 -28 -8 -32 -18 -7 -18 -27 1 -43 11 -9 18 -8 33 7
32 31 92 110 92 120 0 24 183 181 204 174 42 -13 45 -13 39 8 -4 14 0 23 13
28 27 10 98 62 107 78 4 8 17 43 29 77 16 50 21 94 24 217 l3 154 33 31 c39
37 164 177 194 217 26 36 58 61 112 89 50 26 63 20 81 -42 7 -24 18 -48 23
-55 5 -7 12 -59 15 -115 2 -57 6 -113 9 -126 7 -36 29 -20 31 24 3 62 10 107
21 135 6 15 7 31 1 40 -5 8 -9 25 -9 39 0 14 -9 44 -19 66 -18 40 -44 61 -160
131 -48 29 -62 76 -51 170 8 79 17 96 62 119 25 13 28 19 23 44 -7 32 12 75
45 103 12 10 20 23 17 30 -5 17 -30 20 -45 5z"/>
<path d="M8549 3158 c-21 -82 -52 -489 -40 -542 3 -15 11 -17 41 -13 21 3 57
1 81 -5 24 -5 67 -13 94 -19 28 -5 59 -14 70 -19 11 -4 49 -11 85 -14 35 -3
69 -11 74 -16 6 -6 18 -10 28 -10 14 0 18 8 18 35 l0 35 -50 0 c-37 0 -55 5
-71 21 -19 19 -22 19 -32 5 -10 -14 -21 -15 -72 -7 -181 30 -210 40 -221 75
-10 30 -5 266 6 345 12 86 12 131 0 131 -5 0 -10 -1 -11 -2z"/>
<path d="M514 3137 c-3 -10 -3 -29 2 -45 6 -23 8 -24 12 -7 8 37 25 43 20 7
-4 -25 0 -37 14 -45 21 -14 24 -47 4 -47 -25 0 -26 -15 -5 -49 16 -27 23 -31
34 -21 12 10 15 7 21 -15 4 -15 17 -38 29 -51 23 -24 23 -25 30 -5 4 13 -10
59 -40 128 -25 60 -50 119 -56 131 -5 14 -15 22 -23 19 -7 -3 -18 -1 -24 5 -8
8 -13 7 -18 -5z"/>
<path d="M6857 3134 c-9 -10 2 -24 19 -24 8 0 14 7 14 15 0 15 -21 21 -33 9z"/>
<path d="M2797 3110 c3 -11 0 -27 -7 -35 -17 -20 10 -31 39 -15 31 16 25 37
-16 58 -19 10 -20 9 -16 -8z"/>
<path d="M3062 3098 c-7 -7 -12 -19 -12 -27 0 -9 -12 -34 -25 -56 -30 -48 -31
-55 -7 -55 19 0 57 65 67 118 7 33 -2 41 -23 20z"/>
<path d="M5658 3056 c-16 -12 -25 -36 -14 -36 3 0 17 11 32 25 28 26 13 35
-18 11z"/>
<path d="M6880 3006 c0 -10 9 -16 21 -16 24 0 21 23 -4 28 -10 2 -17 -3 -17
-12z"/>
<path d="M4613 2993 c-3 -10 -14 -26 -24 -35 -10 -10 -15 -25 -12 -38 7 -27
11 -26 48 18 25 28 31 41 24 55 -6 9 -14 17 -20 17 -5 0 -12 -8 -16 -17z"/>
<path d="M4093 2950 c-6 -23 -23 -27 -23 -5 0 27 -25 16 -38 -17 -12 -33 -7
-53 7 -29 13 20 31 4 31 -29 0 -30 -43 -90 -64 -90 -7 0 -18 -11 -24 -25 -7
-14 -23 -30 -37 -37 -24 -11 -25 -16 -26 -92 0 -45 -4 -119 -8 -166 -10 -108
1 -172 44 -255 19 -37 35 -75 35 -85 0 -11 11 -36 25 -56 27 -40 32 -69 13
-77 -10 -4 -10 -6 -1 -6 7 -1 31 18 53 42 38 38 41 46 36 80 -4 21 -13 57 -21
80 -19 54 -19 94 0 147 8 23 15 44 15 45 0 2 -14 8 -30 14 -28 9 -30 14 -29
53 1 24 -2 72 -6 108 -9 81 4 120 39 120 17 0 37 15 65 49 40 48 41 50 41 127
0 78 -1 79 -33 102 -41 27 -57 28 -64 2z"/>
<path d="M5295 2883 c-14 -21 -25 -41 -25 -46 0 -5 -11 -23 -25 -41 -14 -18
-25 -41 -25 -50 0 -10 -8 -31 -17 -46 -14 -24 -14 -31 -4 -44 22 -27 38 -18
55 32 16 42 39 98 82 200 12 28 12 32 -1 32 -8 0 -26 -17 -40 -37z"/>
<path d="M1243 2773 c-18 -38 -16 -73 3 -73 13 0 15 8 12 35 -2 19 0 35 4 35
4 0 8 7 8 15 0 24 -14 17 -27 -12z"/>
<path d="M4756 2708 c-3 -13 -6 -36 -6 -51 0 -15 -8 -40 -17 -54 -14 -21 -18
-50 -18 -145 0 -100 -3 -121 -16 -129 -12 -6 -19 -5 -23 6 -7 20 -23 19 -28
-2 -8 -30 2 -43 32 -43 32 0 53 -21 48 -47 -2 -12 -11 -17 -25 -15 -16 2 -22
-4 -26 -30 -3 -18 -2 -36 2 -41 4 -4 30 0 59 8 l51 16 -4 80 c-3 43 -10 87
-16 97 -8 13 -7 49 5 137 14 113 12 235 -4 235 -4 0 -10 -10 -14 -22z"/>
<path d="M6867 2633 c-12 -12 -7 -31 10 -37 24 -9 39 9 23 29 -14 16 -23 19
-33 8z"/>
<path d="M6867 2533 c-5 -44 14 -83 42 -83 30 0 31 11 5 45 -16 21 -21 36 -15
40 18 11 12 35 -8 35 -14 0 -20 -9 -24 -37z"/>
<path d="M1706 2506 c3 -9 11 -16 16 -16 13 0 5 23 -10 28 -7 2 -10 -2 -6 -12z"/>
<path d="M1356 2477 c-17 -12 -16 -14 9 -31 30 -20 45 -15 26 8 -7 8 -10 20
-6 26 9 14 -8 13 -29 -3z"/>
<path d="M6876 2421 c-8 -12 -12 -680 -6 -918 3 -114 6 -135 22 -149 20 -19
23 -8 8 32 -6 15 -8 35 -4 43 4 9 9 48 11 86 2 39 5 93 8 120 6 77 10 262 6
320 -1 11 -1 75 -1 143 1 77 -2 128 -9 136 -7 8 -10 40 -7 82 4 69 -12 131
-28 105z"/>
<path d="M5517 2377 c-40 -35 -45 -47 -23 -47 20 0 76 49 76 66 0 22 -13 17
-53 -19z"/>
<path d="M5433 2378 c-21 -28 -43 -88 -43 -118 0 -17 -5 -40 -10 -50 -20 -37
-34 -217 -34 -436 -1 -216 0 -222 21 -240 21 -18 46 -108 44 -159 0 -11 4 -37
10 -59 16 -61 33 -29 36 70 2 66 -1 91 -14 110 -18 29 -21 122 -11 404 6 169
22 267 54 332 16 34 16 39 2 55 -9 10 -19 37 -23 61 -7 43 -16 51 -32 30z"/>
<path d="M1670 2281 c0 -9 73 -71 84 -71 19 0 0 29 -33 53 -42 29 -51 32 -51
18z"/>
<path d="M4110 2226 c0 -8 5 -18 10 -21 6 -3 10 -21 10 -40 0 -47 17 -53 36
-12 16 33 16 36 -2 61 -21 27 -54 35 -54 12z"/>
<path d="M5647 2203 c-10 -10 -8 -53 2 -53 8 0 20 32 21 53 0 9 -14 9 -23 0z"/>
<path d="M4297 2169 c-26 -15 -21 -48 7 -55 24 -6 24 -6 5 -27 -11 -12 -28
-31 -38 -42 -10 -11 -21 -27 -24 -36 -3 -11 -15 -14 -40 -11 -29 3 -38 10 -48
36 -12 30 -12 30 -17 7 -2 -16 2 -29 13 -37 11 -8 15 -20 11 -30 -3 -9 -2 -22
4 -29 11 -14 50 -9 50 6 0 14 26 10 40 -5 15 -19 34 -11 48 18 6 14 22 26 41
29 17 4 34 13 37 22 8 20 -18 106 -33 112 -7 3 -13 11 -13 18 0 21 -23 35 -43
24z"/>
<path d="M1666 2105 c4 -8 10 -15 15 -15 5 0 9 -11 9 -24 0 -25 22 -51 33 -39
12 12 7 43 -7 49 -8 3 -16 14 -19 25 -3 10 -12 19 -21 19 -10 0 -13 -6 -10
-15z"/>
<path d="M1962 1978 c-11 -24 -31 -65 -43 -93 -12 -27 -31 -72 -44 -100 -12
-27 -29 -70 -39 -95 -10 -25 -24 -60 -32 -78 -8 -18 -14 -37 -14 -43 0 -5 -8
-22 -17 -36 -10 -15 -16 -37 -15 -50 2 -13 -2 -23 -8 -23 -13 0 -50 -83 -50
-115 0 -12 -7 -28 -15 -35 -8 -7 -15 -18 -15 -25 0 -7 -7 -26 -15 -41 -8 -16
-15 -41 -15 -56 0 -15 -4 -30 -10 -33 -5 -3 -10 -17 -10 -31 0 -14 -7 -27 -15
-30 -8 -4 -15 -16 -15 -29 0 -12 -9 -30 -20 -40 -25 -23 -26 -41 -1 -48 14 -3
18 -11 14 -26 -3 -12 -1 -21 6 -21 6 0 11 7 11 16 0 8 9 32 19 52 33 64 51
112 51 135 0 12 7 36 16 52 22 42 94 226 94 240 0 7 9 20 20 30 12 10 18 25
16 32 -6 14 -3 20 28 80 9 17 16 40 16 50 0 11 7 28 15 39 8 10 15 26 15 34 0
9 9 23 19 32 10 9 24 39 30 67 6 29 20 69 31 91 11 22 20 50 20 64 0 14 4 36
10 50 17 45 -15 31 -38 -16z"/>
<path d="M1492 1953 c4 -21 33 -25 33 -3 0 8 -8 16 -18 18 -14 3 -18 -1 -15
-15z"/>
<path d="M4049 1948 c-10 -18 -8 -24 12 -39 29 -21 39 -14 32 23 -7 35 -30 43
-44 16z"/>
<path d="M4400 1955 c0 -10 7 -15 18 -13 21 4 19 22 -2 26 -10 2 -16 -3 -16
-13z"/>
<path d="M3974 1903 c4 -16 14 -43 24 -61 13 -26 22 -32 40 -29 14 3 26 -1 29
-9 7 -19 33 -18 33 1 0 8 -6 15 -14 15 -8 0 -17 11 -20 24 -8 31 -59 86 -81
86 -14 0 -16 -6 -11 -27z"/>
<path d="M4261 1906 c-10 -11 -8 -17 6 -25 14 -8 16 -14 7 -28 -18 -30 -44
-29 -44 2 0 29 -23 43 -44 26 -7 -6 -21 -9 -30 -5 -26 10 -19 -3 29 -53 28
-28 45 -56 45 -70 0 -14 4 -21 10 -18 6 3 10 15 10 26 0 25 19 59 48 82 13 11
22 30 22 48 0 24 -4 29 -24 29 -13 0 -29 -6 -35 -14z"/>
<path d="M1507 1904 c-10 -11 -9 -54 2 -54 6 0 12 4 15 9 8 12 -8 54 -17 45z"/>
<path d="M1795 1890 c-3 -5 -17 -10 -31 -10 -22 0 -24 -3 -24 -52 0 -29 4 -59
9 -67 8 -13 15 1 49 107 10 32 9 41 -3 22z"/>
<path d="M4676 1774 c-9 -22 -8 -24 9 -18 8 4 15 12 15 20 0 19 -16 18 -24 -2z"/>
<path d="M4498 1774 c-5 -4 -8 -21 -8 -37 0 -22 -9 -38 -30 -56 -23 -20 -28
-30 -20 -41 8 -13 14 -10 40 16 28 27 31 36 28 78 -2 26 -6 44 -10 40z"/>
<path d="M4142 1748 c5 -15 28 -18 29 -3 0 6 -7 12 -17 13 -10 3 -15 -1 -12
-10z"/>
<path d="M4016 1721 c-8 -13 4 -42 15 -35 12 7 12 44 0 44 -6 0 -12 -4 -15 -9z"/>
<path d="M4247 1623 l-26 -38 1 -205 c1 -113 -2 -310 -6 -437 -8 -230 -6 -254
23 -219 18 22 33 173 27 278 -4 61 -2 99 4 103 6 4 7 11 3 18 -4 6 -8 82 -10
169 -3 148 4 219 33 341 10 41 -18 35 -49 -10z"/>
<path d="M1716 1628 c-2 -7 -9 -29 -16 -48 -7 -19 -15 -54 -17 -77 -3 -23 -11
-47 -19 -54 -8 -6 -14 -25 -14 -41 0 -16 -6 -31 -15 -34 -16 -6 -21 -44 -6
-44 14 0 27 22 41 65 6 22 18 54 26 72 8 17 14 37 14 45 0 7 6 22 13 33 16 24
21 95 6 95 -5 0 -11 -6 -13 -12z"/>
<path d="M5268 1528 c-17 -35 -38 -96 -56 -163 -7 -22 -32 -67 -57 -100 -24
-33 -45 -63 -45 -67 0 -12 17 -9 32 5 22 22 56 37 70 32 23 -9 47 56 58 155 6
52 13 112 17 133 7 46 2 47 -19 5z"/>
<path d="M4500 1497 c0 -14 -7 -30 -15 -37 -12 -10 -12 -16 -4 -26 6 -8 8 -22
4 -31 -6 -17 -7 -17 -21 2 -12 17 -16 18 -24 5 -11 -18 -24 -109 -16 -117 11
-11 37 20 34 41 -5 41 11 48 42 19 24 -24 26 -30 14 -43 -12 -14 -23 -91 -27
-195 -2 -31 2 -40 16 -43 11 -2 27 5 38 17 16 17 19 31 15 83 -6 77 18 152 47
144 17 -4 25 18 8 28 -4 3 -6 16 -4 28 4 23 -6 30 -69 52 -13 4 -18 16 -18 45
0 22 -4 43 -10 46 -6 3 -10 -4 -10 -18z m56 -98 c10 -17 -13 -36 -27 -22 -12
12 -4 33 11 33 5 0 12 -5 16 -11z"/>
<path d="M770 1344 c-6 -15 -13 -31 -16 -36 -4 -5 3 -4 14 3 23 14 35 46 21
55 -5 3 -14 -7 -19 -22z"/>
<path d="M6900 1260 c0 -18 4 -29 10 -25 6 3 10 15 10 25 0 10 -4 22 -10 25
-6 4 -10 -7 -10 -25z"/>
<path d="M4406 1248 c-2 -7 -8 -29 -15 -49 -13 -42 -15 -109 -2 -109 5 0 12
17 16 37 4 21 13 50 21 66 15 28 11 67 -7 67 -5 0 -11 -6 -13 -12z"/>
<path d="M4703 1249 c-7 -7 -13 -32 -13 -55 0 -24 -4 -45 -10 -49 -6 -4 -5
-14 1 -29 8 -17 8 -29 -1 -45 -9 -18 -8 -28 8 -53 l20 -31 7 114 c8 135 6 166
-12 148z"/>
<path d="M5430 1198 c0 -16 5 -28 10 -28 13 0 13 20 0 40 -8 12 -10 9 -10 -12z"/>
<path d="M2921 1186 c-8 -9 -11 -19 -7 -23 9 -9 29 13 24 27 -2 8 -8 7 -17 -4z"/>
<path d="M5095 1089 c-10 -15 3 -25 16 -12 7 7 7 13 1 17 -6 3 -14 1 -17 -5z"/>
<path d="M5055 1035 c-11 -14 -27 -27 -37 -30 -9 -3 -19 -17 -22 -30 -3 -13
-14 -26 -24 -29 -28 -9 -94 -74 -87 -86 11 -18 57 15 132 95 45 47 70 82 66
91 -6 17 -4 18 -28 -11z"/>
<path d="M200 1025 c0 -17 2 -18 24 -9 23 9 20 24 -4 24 -11 0 -20 -7 -20 -15z"/>
<path d="M4493 1025 c-3 -9 -3 -18 0 -21 9 -9 27 6 27 22 0 19 -19 18 -27 -1z"/>
<path d="M4407 987 c-7 -19 4 -147 14 -147 6 0 1 149 -6 158 -1 2 -5 -3 -8
-11z"/>
<path d="M4551 831 c2 -162 1 -170 -20 -197 -20 -26 -21 -29 -6 -32 25 -5 55
27 55 59 0 15 5 31 10 34 6 3 10 15 10 26 0 12 10 29 22 38 21 18 21 19 5 54
-9 19 -17 42 -17 50 0 8 -7 20 -15 27 -8 7 -15 27 -15 45 0 40 -9 65 -22 65
-5 0 -8 -67 -7 -169z"/>
<path d="M3748 923 c-6 -22 1 -43 13 -43 5 0 9 14 9 30 0 33 -15 41 -22 13z"/>
<path d="M1500 905 c-21 -56 -23 -75 -6 -75 9 0 18 12 22 28 4 15 11 32 16 39
11 13 3 33 -13 33 -5 0 -14 -11 -19 -25z"/>
<path d="M3760 846 c0 -21 21 -31 30 -15 5 7 6 17 4 21 -9 14 -34 9 -34 -6z"/>
<path d="M1535 798 c-2 -7 -6 -30 -10 -50 -3 -22 -12 -38 -19 -38 -8 0 -17 -8
-21 -17 -6 -16 -8 -15 -16 6 -6 16 -6 28 1 35 5 5 10 23 10 40 0 28 0 29 -20
11 -11 -10 -20 -28 -20 -41 0 -13 -4 -26 -10 -29 -11 -7 -27 -63 -34 -120 -6
-57 -22 -92 -46 -105 -11 -6 -20 -19 -20 -29 0 -34 -32 -111 -46 -111 -8 0
-14 -8 -14 -19 0 -10 -7 -24 -15 -31 -8 -7 -15 -29 -15 -50 0 -29 -4 -39 -20
-43 -11 -3 -20 -14 -20 -24 0 -10 -7 -28 -15 -40 -8 -12 -12 -29 -8 -39 3 -10
0 -22 -8 -28 -8 -6 -22 -26 -31 -44 l-18 -33 47 3 c46 3 48 4 59 44 6 22 31
80 54 130 82 174 119 250 164 346 26 53 51 100 56 103 6 3 10 16 10 28 0 12 7
35 15 51 17 32 31 106 21 106 -4 0 -8 -6 -11 -12z"/>
<path d="M5335 742 c-16 -10 -31 -20 -33 -24 -2 -5 -12 -8 -22 -8 -31 0 -39
-30 -33 -118 6 -84 23 -105 23 -28 0 28 6 48 17 57 9 8 22 28 30 44 18 41 35
67 53 82 21 17 1 14 -35 -5z"/>
<path d="M3770 726 c0 -8 5 -18 10 -21 6 -3 10 3 10 14 0 12 -4 21 -10 21 -5
0 -10 -6 -10 -14z"/>
<path d="M5118 712 c-16 -10 -28 -20 -28 -24 0 -16 26 -7 49 17 26 28 19 31
-21 7z"/>
<path d="M4920 595 c-7 -8 -24 -16 -39 -16 -19 -1 -21 -3 -6 -6 11 -2 38 5 60
16 30 15 35 20 19 21 -12 0 -27 -7 -34 -15z"/>
<path d="M8853 603 c9 -2 25 -2 35 0 9 3 1 5 -18 5 -19 0 -27 -2 -17 -5z"/>
<path d="M5102 549 c-23 -9 -26 -29 -6 -36 9 -3 39 36 32 42 -2 1 -14 -1 -26
-6z"/>
<path d="M4580 516 c-6 -8 -30 -16 -52 -18 -50 -4 -74 -31 -45 -53 11 -7 25
-11 33 -8 8 3 20 0 27 -5 15 -12 284 -11 280 1 -2 4 -3 11 -3 17 0 14 -80 33
-121 27 -20 -3 -52 -12 -72 -22 -34 -16 -57 -14 -57 4 0 5 16 19 35 32 19 13
35 27 35 32 0 13 -47 7 -60 -7z"/>
<path d="M6945 462 c-45 -3 -145 -46 -145 -62 0 -5 1 -10 3 -11 1 -1 223 -3
492 -5 270 -2 634 -9 810 -15 210 -8 399 -9 550 -3 127 4 256 7 288 6 l57 -2
0 31 c0 30 -1 31 -40 24 -78 -13 -946 -6 -968 8 -7 5 -18 4 -25 -1 -9 -7 -558
-18 -702 -14 -11 1 -75 2 -142 3 -111 2 -123 4 -123 20 0 23 -6 25 -55 21z"/>
<path d="M4172 451 c2 -7 7 -12 11 -12 12 1 9 15 -3 20 -7 2 -11 -2 -8 -8z"/>
<path d="M4247 432 c-9 -2 -15 -8 -12 -13 8 -12 65 -12 65 0 0 11 -29 18 -53
13z"/>
<path d="M4410 420 c-6 -11 -7 -20 -2 -20 10 0 32 21 32 32 0 16 -19 8 -30
-12z"/>
<path d="M3880 405 c0 -8 7 -15 15 -15 8 0 15 4 15 9 0 5 -7 11 -15 15 -9 3
-15 0 -15 -9z"/>
<path d="M4315 400 c-9 -15 21 -23 52 -15 21 5 24 8 12 16 -19 12 -56 11 -64
-1z"/>
<path d="M4434 379 c-10 -17 13 -36 27 -22 12 12 4 33 -11 33 -5 0 -12 -5 -16
-11z"/>
<path d="M5130 374 c0 -9 5 -14 12 -12 18 6 21 28 4 28 -9 0 -16 -7 -16 -16z"/>
<path d="M3834 336 c-3 -13 -1 -49 5 -78 7 -30 15 -98 20 -151 4 -54 11 -101
15 -104 19 -19 25 35 20 172 -4 117 -9 154 -21 168 -22 23 -31 22 -39 -7z"/>
<path d="M4815 340 c-4 -6 -1 -17 5 -25 10 -12 9 -15 -8 -15 -12 0 -24 5 -27
10 -4 6 -12 7 -18 3 -7 -5 -50 -11 -97 -15 -123 -10 -187 -22 -207 -40 -10 -9
-30 -19 -45 -22 -16 -3 -39 -8 -53 -11 -43 -9 -27 -25 24 -25 31 0 55 6 65 15
8 8 26 15 40 15 14 0 45 6 68 14 26 8 95 14 177 15 74 1 138 4 143 7 15 9 8
24 -11 24 -28 0 -35 17 -11 25 31 10 25 35 -9 35 -17 0 -33 -5 -36 -10z"/>
<path d="M5035 339 c-10 -15 1 -22 24 -14 12 3 19 11 16 16 -8 12 -32 11 -40
-2z"/>
<path d="M4942 324 c-33 -23 -28 -38 11 -29 17 4 38 7 45 8 16 1 15 5 -2 23
-18 18 -26 18 -54 -2z"/>
<path d="M6925 272 c-2 -3 -60 -8 -128 -13 -120 -7 -216 -29 -236 -53 -5 -6
-21 -33 -36 -60 -24 -42 -25 -51 -13 -60 22 -17 39 -53 32 -70 -5 -13 2 -16
35 -16 23 0 41 2 41 4 0 2 -7 20 -15 40 -13 31 -14 43 -3 72 14 40 35 55 98
73 25 7 59 17 76 22 17 5 172 9 345 9 253 -1 319 -3 339 -15 35 -20 37 -19 55
15 11 21 22 29 37 27 11 -1 23 3 25 9 2 7 -29 11 -94 10 -54 0 -200 3 -326 6
-125 2 -229 3 -232 0z"/>
<path d="M7800 271 c0 -13 83 -23 125 -15 66 12 47 24 -39 24 -47 0 -86 -4
-86 -9z"/>
<path d="M8043 273 c9 -2 25 -2 35 0 9 3 1 5 -18 5 -19 0 -27 -2 -17 -5z"/>
<path d="M8268 273 c12 -2 32 -2 45 0 12 2 2 4 -23 4 -25 0 -35 -2 -22 -4z"/>
<path d="M8373 269 c14 -8 22 -8 30 0 8 8 3 11 -18 11 -26 -1 -28 -2 -12 -11z"/>
<path d="M2390 203 c0 -13 5 -23 10 -23 13 0 13 11 0 30 -8 12 -10 11 -10 -7z"/>
<path d="M7961 191 c-11 -7 -10 -15 8 -44 11 -19 21 -41 21 -48 0 -8 5 -31 11
-52 8 -31 13 -36 24 -27 8 6 15 35 17 63 l3 52 55 -2 c30 -1 68 -2 84 -2 34 0
45 -14 46 -56 0 -16 6 -40 13 -53 l13 -23 12 26 c7 15 10 42 6 59 -9 52 5 57
162 54 l139 -3 1 -40 c3 -100 2 -95 34 -95 43 0 68 40 52 83 -7 18 -8 35 -3
40 5 5 49 10 97 10 l89 2 3 -27 c4 -33 24 -36 51 -7 19 20 21 20 52 5 44 -22
49 -21 49 14 0 32 -11 37 -52 21 -16 -6 -32 -5 -47 4 -23 12 -22 12 18 19 22
3 41 10 41 15 0 17 -972 29 -999 12z"/>
<path d="M7721 183 c-36 -5 -121 -63 -133 -91 -4 -9 -7 -34 -7 -54 l-1 -38
135 0 135 0 0 35 c0 20 -11 57 -24 83 -13 26 -21 53 -19 60 5 12 -14 13 -86 5z"/>
<path d="M4611 139 c-13 -14 -26 -19 -37 -15 -9 4 -26 0 -38 -8 -30 -19 -97
-29 -127 -17 -15 5 -32 6 -39 1 -11 -7 -8 -11 12 -19 14 -5 29 -15 33 -21 5
-7 38 -10 98 -8 l92 3 0 -28 c-1 -24 3 -27 32 -27 l33 0 0 80 c0 73 -2 80 -20
80 -10 0 -28 -10 -39 -21z"/>
</g>
</svg>
