<?xml version="1.0" standalone="no"?>
<!DOCTYPE svg PUBLIC "-//W3C//DTD SVG 20010904//EN"
 "http://www.w3.org/TR/2001/REC-SVG-20010904/DTD/svg10.dtd">
<svg version="1.0" xmlns="http://www.w3.org/2000/svg"
 width="300.000000pt" height="300.000000pt" viewBox="0 0 300.000000 300.000000"
 preserveAspectRatio="xMidYMid meet">
<metadata>
Created by potrace 1.10, written by Peter Selinger 2001-2011
</metadata>
<g transform="translate(0.000000,300.000000) scale(0.050000,-0.050000)"
fill="#ffffff" stroke="none">
<path d="M5616 5737 c-25 -7 52 -14 172 -15 120 -1 214 3 207 9 -16 17 -325
21 -379 6z"/>
<path d="M2840 5113 c-409 -95 -714 -403 -821 -829 l-42 -164 53 -96 52 -96
-60 -156 c-65 -168 -64 -180 23 -307 57 -86 57 -86 19 -140 -62 -90 -63 -116
-13 -212 63 -118 62 -142 -22 -272 -80 -127 -85 -168 -26 -216 24 -19 77 -65
118 -101 l75 -65 165 80 c135 66 171 77 197 57 18 -14 34 -26 37 -27 3 -2 -22
-87 -55 -190 -34 -103 -85 -291 -114 -418 -28 -127 -68 -264 -89 -305 -75
-149 -11 -276 138 -276 25 0 45 -8 45 -18 0 -10 11 -17 25 -17 14 1 48 0 77
-2 l52 -3 8 -265 c4 -146 6 -362 4 -480 l-4 -215 107 0 c184 0 171 -37 171
492 0 455 1 468 40 468 28 0 41 -14 42 -45 1 -25 6 -103 10 -175 4 -71 11
-258 13 -414 7 -329 7 -330 167 -322 l118 6 -8 100 c-11 132 -11 184 -6 545 4
294 6 305 45 305 23 0 61 11 85 24 24 13 67 27 94 31 133 19 180 117 117 241
-21 41 -71 204 -110 364 -39 159 -94 351 -121 427 -27 75 -46 138 -43 140 4 3
21 15 38 28 26 19 63 8 197 -56 l165 -81 76 66 c41 36 94 82 118 101 59 48 54
89 -26 216 -84 130 -85 150 -22 269 51 96 49 124 -13 215 -38 54 -38 54 19
140 91 133 92 147 24 311 l-62 149 51 94 c56 103 52 187 -16 405 -136 434
-702 784 -1112 689z m369 -252 c89 -50 88 -94 -3 -136 -42 -19 -79 -42 -83
-50 -3 -8 -18 -15 -33 -15 -39 0 -230 -202 -230 -244 0 -8 -16 -10 -35 -3 -29
9 -30 7 -5 -10 24 -17 25 -26 4 -47 -24 -24 -54 -29 -209 -34 -39 -1 -61 -16
-73 -47 -30 -78 -242 -194 -242 -133 0 10 -23 23 -51 30 -49 12 -54 77 -9 108
8 6 21 30 29 55 7 25 24 45 37 45 16 1 14 7 -4 18 -21 14 -19 20 14 31 27 8
39 26 34 51 -7 39 50 120 85 120 11 0 25 27 32 60 9 45 20 56 46 46 21 -8 29
-5 21 8 -67 108 517 235 675 147z m255 -224 c-5 -51 11 -109 53 -190 98 -194
99 -207 7 -183 -122 30 -465 -91 -410 -146 16 -16 59 -7 159 33 182 73 321 88
340 37 7 -21 46 -79 87 -129 226 -273 52 -817 -328 -1028 -554 -308 -1232 157
-1163 797 l14 128 109 7 c79 5 106 0 99 -17 -18 -48 27 -46 77 4 30 30 73 50
106 50 l56 -1 -50 -25 c-59 -29 -70 -127 -18 -160 94 -59 202 65 127 147 -55
61 13 51 71 -11 47 -50 100 -67 100 -32 0 68 -182 155 -281 135 -71 -14 -73
-1 -9 76 l48 59 102 -48 c87 -41 105 -44 121 -19 14 22 4 35 -36 52 -54 23
-53 24 35 30 89 7 91 9 150 131 76 158 80 161 210 186 121 23 139 41 140 136
0 58 6 66 45 60 39 -5 44 -16 39 -79z m256 -1607 c20 -24 20 -36 -2 -62 -22
-27 -22 -36 3 -55 45 -36 85 -126 68 -154 -10 -16 -7 -20 8 -11 13 8 23 2 23
-15 0 -56 -76 -59 -125 -6 -36 38 -54 45 -81 30 -19 -11 -32 -12 -29 -3 3 9
-3 17 -13 19 -10 2 -27 18 -36 36 -10 17 -28 26 -40 18 -15 -9 -16 -4 -5 15
10 15 19 37 20 48 2 11 4 32 6 47 2 22 9 23 31 5 25 -21 49 2 61 58 12 61 72
77 111 30z m-1301 -65 c11 -19 20 -26 21 -15 1 32 39 -37 40 -72 0 -56 -71
-123 -97 -91 -13 15 -17 33 -9 40 7 7 -2 13 -20 13 -25 0 -32 21 -31 100 1
105 43 116 96 25z m-239 -99 c-23 -42 -37 -58 -30 -36 7 22 23 75 36 117 17
55 26 65 30 36 4 -22 -13 -75 -36 -117z m708 -9 c-6 -11 8 -25 32 -31 33 -9
37 -16 17 -28 -18 -12 -7 -17 33 -17 46 0 53 4 30 19 -22 14 -11 19 45 20 53
0 75 9 75 30 0 48 45 34 124 -40 147 -136 167 -210 58 -210 -72 0 -95 -74 -89
-289 2 -87 -4 -174 -14 -194 -12 -22 -12 -39 1 -47 11 -7 20 -33 20 -59 0 -32
11 -46 35 -44 27 2 35 -13 35 -69 0 -39 10 -84 22 -100 13 -15 28 -41 34 -58
30 -81 10 64 -26 190 -38 133 -58 398 -32 424 7 7 12 -14 12 -47 0 -34 17
-127 37 -209 21 -81 49 -204 64 -272 15 -68 35 -119 44 -113 24 15 74 -54 74
-103 0 -24 -21 -50 -53 -65 -66 -31 -106 -32 -106 -4 0 12 9 16 20 9 11 -7 20
7 20 30 0 23 -9 37 -20 30 -11 -7 -14 2 -7 21 13 33 -21 68 -66 69 -24 0 -8
-110 23 -161 11 -17 8 -20 -9 -10 -19 12 -22 5 -12 -26 9 -27 5 -43 -9 -43
-12 0 -20 -20 -16 -45 5 -37 -7 -48 -64 -62 -84 -20 -185 12 -168 54 13 36
-49 60 -83 32 -15 -12 -22 -34 -16 -49 13 -34 -108 -61 -185 -41 -39 10 -50
22 -42 52 11 41 -57 73 -132 62 -44 -7 -39 43 39 427 27 132 63 314 81 405 17
90 38 160 46 155 20 -12 2 136 -19 157 -9 9 -34 7 -55 -4 -125 -66 -86 53 62
193 95 90 181 128 140 61z m-558 -61 c8 8 3 -6 -12 -31 -35 -57 -72 -71 -86
-33 -8 20 -3 25 13 15 17 -10 16 -4 -2 19 -16 19 -21 49 -14 69 13 32 17 31
50 -9 20 -24 43 -38 51 -30z"/>
<path d="M3230 4037 c-54 -30 -130 -100 -130 -120 0 -34 54 -16 100 33 58 62
126 72 71 11 -75 -82 33 -206 127 -147 40 25 53 119 21 157 -42 51 18 34 73
-21 82 -83 125 -57 46 27 -74 80 -220 108 -308 60z"/>
<path d="M2911 3726 c-57 -159 -61 -209 -20 -239 43 -32 129 -36 129 -7 0 11
-12 20 -26 20 -82 0 -105 53 -61 133 51 91 66 170 35 181 -13 4 -38 -36 -57
-88z"/>
<path d="M2664 3343 c38 -199 634 -197 672 1 5 28 -32 32 -336 31 -296 -2
-341 -6 -336 -32z m576 -33 c-19 -23 -73 -30 -240 -30 -167 0 -221 7 -240 30
-22 26 7 30 240 30 233 0 262 -4 240 -30z"/>
</g>
</svg>
